<svg width="15" height="16" viewBox="0 0 15 16" fill="none" xmlns="http://www.w3.org/2000/svg">
<path d="M15 1.91781V11.5193C14.9995 11.6104 14.98 11.7004 14.9428 11.7832C14.9056 11.866 14.8516 11.9397 14.7844 11.9994C13.5906 13.0579 12.4492 13.4396 11.3609 13.4396C9.88359 13.4396 8.50391 12.7403 7.22031 12.0914C5.14609 11.0392 3.34297 10.1279 1.25 11.821V15.3599C1.25 15.5297 1.18415 15.6925 1.06694 15.8125C0.949731 15.9326 0.79076 16 0.625 16C0.45924 16 0.300269 15.9326 0.183058 15.8125C0.0658481 15.6925 0 15.5297 0 15.3599V1.91781C0.000599264 1.82662 0.020217 1.73662 0.057539 1.65382C0.0948611 1.57103 0.149026 1.49736 0.216406 1.43774C3.02891 -1.05705 5.55312 0.220751 7.77812 1.34813C9.92187 2.43469 11.7805 3.37404 13.9656 1.43774C14.0559 1.35756 14.1668 1.30558 14.2851 1.28797C14.4034 1.27036 14.5241 1.28785 14.633 1.33838C14.7419 1.38891 14.8343 1.47035 14.8993 1.57305C14.9644 1.67575 14.9993 1.7954 15 1.91781Z" fill="#343436"/>
</svg>
