<svg width="16" height="16" viewBox="0 0 16 16"  xmlns="http://www.w3.org/2000/svg">
<path d="M16 8C16 8.18564 15.9298 8.36367 15.8047 8.49494C15.6797 8.6262 15.5102 8.69994 15.3334 8.69994H7.33362V14.2995C7.33372 14.438 7.29468 14.5735 7.22143 14.6887C7.14819 14.8039 7.04404 14.8937 6.92216 14.9467C6.80028 14.9997 6.66616 15.0136 6.53677 14.9865C6.40739 14.9595 6.28856 14.8927 6.19532 14.7947L0.195518 8.49521C0.133536 8.43021 0.0843647 8.35301 0.0508163 8.26804C0.0172679 8.18306 0 8.09198 0 8C0 7.90802 0.0172679 7.81693 0.0508163 7.73196C0.0843647 7.64699 0.133536 7.56979 0.195518 7.50479L6.19532 1.20529C6.28856 1.10728 6.40739 1.04053 6.53677 1.01348C6.66616 0.986427 6.80028 1.00029 6.92216 1.05331C7.04404 1.10633 7.14819 1.19613 7.22143 1.31134C7.29468 1.42655 7.33372 1.56198 7.33362 1.7005V7.30006H15.3334C15.5102 7.30006 15.6797 7.3738 15.8047 7.50506C15.9298 7.63633 16 7.81436 16 8Z" />
</svg>
