<svg width="16" height="16" viewBox="0 0 16 16" fill="none" xmlns="http://www.w3.org/2000/svg">
<path d="M14.6667 0H1.33333C0.979711 0 0.640573 0.140476 0.390524 0.390524C0.140476 0.640573 0 0.979711 0 1.33333V14.6667C0 15.0203 0.140476 15.3594 0.390524 15.6095C0.640573 15.8595 0.979711 16 1.33333 16H14.6667C15.0203 16 15.3594 15.8595 15.6095 15.6095C15.8595 15.3594 16 15.0203 16 14.6667V1.33333C16 0.979711 15.8595 0.640573 15.6095 0.390524C15.3594 0.140476 15.0203 0 14.6667 0ZM7.13833 9.805L4.47167 12.4717C4.40975 12.5337 4.33623 12.5828 4.25529 12.6164C4.17436 12.6499 4.08761 12.6672 4 12.6672C3.91239 12.6672 3.82564 12.6499 3.74471 12.6164C3.66377 12.5828 3.59025 12.5337 3.52833 12.4717L2.195 11.1383C2.06991 11.0132 1.99963 10.8436 1.99963 10.6667C1.99963 10.4898 2.06991 10.3201 2.195 10.195C2.32009 10.0699 2.48976 9.99963 2.66667 9.99963C2.84358 9.99963 3.01324 10.0699 3.13833 10.195L4 11.0575L6.195 8.86167C6.32009 8.73657 6.48976 8.6663 6.66667 8.6663C6.84358 8.6663 7.01324 8.73657 7.13833 8.86167C7.26343 8.98676 7.3337 9.15642 7.3337 9.33333C7.3337 9.51024 7.26343 9.67991 7.13833 9.805ZM7.13833 4.47167L4.47167 7.13833C4.40975 7.20032 4.33623 7.24949 4.25529 7.28304C4.17436 7.31659 4.08761 7.33386 4 7.33386C3.91239 7.33386 3.82564 7.31659 3.74471 7.28304C3.66377 7.24949 3.59025 7.20032 3.52833 7.13833L2.195 5.805C2.13306 5.74306 2.08393 5.66953 2.0504 5.5886C2.01688 5.50767 1.99963 5.42093 1.99963 5.33333C1.99963 5.15642 2.06991 4.98676 2.195 4.86167C2.32009 4.73657 2.48976 4.6663 2.66667 4.6663C2.84358 4.6663 3.01324 4.73657 3.13833 4.86167L4 5.72417L6.195 3.52833C6.32009 3.40324 6.48976 3.33296 6.66667 3.33296C6.84358 3.33296 7.01324 3.40324 7.13833 3.52833C7.26343 3.65343 7.3337 3.82309 7.3337 4C7.3337 4.17691 7.26343 4.34657 7.13833 4.47167ZM13.3333 11.3333H9.33333C9.15652 11.3333 8.98695 11.2631 8.86193 11.1381C8.7369 11.013 8.66667 10.8435 8.66667 10.6667C8.66667 10.4899 8.7369 10.3203 8.86193 10.1953C8.98695 10.0702 9.15652 10 9.33333 10H13.3333C13.5101 10 13.6797 10.0702 13.8047 10.1953C13.9298 10.3203 14 10.4899 14 10.6667C14 10.8435 13.9298 11.013 13.8047 11.1381C13.6797 11.2631 13.5101 11.3333 13.3333 11.3333ZM13.3333 6H9.33333C9.15652 6 8.98695 5.92976 8.86193 5.80474C8.7369 5.67971 8.66667 5.51014 8.66667 5.33333C8.66667 5.15652 8.7369 4.98695 8.86193 4.86193C8.98695 4.7369 9.15652 4.66667 9.33333 4.66667H13.3333C13.5101 4.66667 13.6797 4.7369 13.8047 4.86193C13.9298 4.98695 14 5.15652 14 5.33333C14 5.51014 13.9298 5.67971 13.8047 5.80474C13.6797 5.92976 13.5101 6 13.3333 6Z" fill="#343436"/>
</svg>
