<svg width="16" height="16" viewBox="0 0 16 16" fill="none" xmlns="http://www.w3.org/2000/svg">
<path d="M12.8533 9.7752C12.7836 9.278 12.6393 8.79448 12.4253 8.34135C13.7201 5.72595 14.5004 2.25575 13.607 0.758475C13.4734 0.524373 13.2805 0.330636 13.048 0.197316C12.8156 0.0639956 12.5521 -0.00406194 12.285 0.000187481C11.3227 0.000187481 10.5131 0.819827 9.80169 2.50667C9.37781 3.5145 9.06229 4.66572 8.84763 5.59083C8.28411 5.49005 7.70748 5.49005 7.14395 5.59083C6.93065 4.66572 6.61513 3.5145 6.18989 2.50667C5.48117 0.819827 4.66885 0.000187481 3.70662 0.000187481C3.43868 -0.00375711 3.17459 0.0650148 2.94184 0.199345C2.70909 0.333676 2.51618 0.528655 2.3832 0.76399C1.48979 2.2585 2.27144 5.7287 3.56623 8.34135C3.35302 8.7937 3.20917 9.27626 3.13963 9.77244C2.455 10.4239 2.05422 11.3237 2.02547 12.274C1.99671 13.2244 2.34234 14.1473 2.9863 14.8399C3.63027 15.5324 4.51983 15.9378 5.45929 15.9669C6.39875 15.996 7.31116 15.6464 7.99579 14.995L6.55653 13.6597C6.44537 13.5661 6.37553 13.4316 6.36237 13.286C6.3492 13.1403 6.3938 12.9952 6.48633 12.8828C6.57887 12.7704 6.71177 12.6997 6.85581 12.6864C6.99984 12.6731 7.1432 12.7182 7.25435 12.8118L7.99579 13.4357L8.73723 12.8118C8.84838 12.7182 8.99174 12.6731 9.13578 12.6864C9.27981 12.6997 9.41271 12.7704 9.50525 12.8828C9.59778 12.9952 9.64238 13.1403 9.62921 13.286C9.61605 13.4316 9.54621 13.5661 9.43506 13.6597L7.99579 14.995C8.33332 15.3244 8.73215 15.5828 9.16914 15.7551C9.60614 15.9275 10.0726 16.0104 10.5415 15.999C11.0104 15.9876 11.4724 15.8821 11.9007 15.6887C12.329 15.4953 12.7151 15.2179 13.0366 14.8724C13.3581 14.5269 13.6086 14.1203 13.7736 13.6762C13.9385 13.2321 14.0147 12.7592 13.9977 12.2851C13.9806 11.8109 13.8707 11.3449 13.6742 10.9141C13.4778 10.4832 13.1988 10.0961 12.8533 9.7752ZM4.26679 7.257C3.81292 6.23701 3.47281 5.16905 3.25276 4.07288C3.01492 2.82308 3.03809 1.79802 3.31613 1.33477C3.35144 1.26156 3.40733 1.20052 3.4768 1.15931C3.54627 1.11811 3.62621 1.09857 3.70662 1.10315C4.15707 1.10315 4.69611 1.77182 5.18677 2.93821C5.59088 3.89916 5.89209 5.01453 6.09517 5.90242C5.38805 6.20213 4.76055 6.66592 4.26338 7.25631L4.26679 7.257ZM6.08767 11.5813C5.92594 11.5813 5.76783 11.5328 5.63335 11.4419C5.49887 11.351 5.39405 11.2218 5.33216 11.0706C5.27026 10.9195 5.25407 10.7532 5.28562 10.5927C5.31718 10.4322 5.39506 10.2848 5.50943 10.1691C5.62379 10.0535 5.76951 9.97467 5.92814 9.94275C6.08677 9.91083 6.25119 9.92721 6.40062 9.98983C6.55005 10.0524 6.67776 10.1585 6.76762 10.2945C6.85748 10.4305 6.90544 10.5905 6.90544 10.7541C6.90544 10.9735 6.81928 11.1839 6.66592 11.339C6.51256 11.4941 6.30456 11.5813 6.08767 11.5813ZM9.90391 11.5813C9.74217 11.5813 9.58406 11.5328 9.44958 11.4419C9.3151 11.351 9.21029 11.2218 9.14839 11.0706C9.0865 10.9195 9.0703 10.7532 9.10186 10.5927C9.13341 10.4322 9.21129 10.2848 9.32566 10.1691C9.44003 10.0535 9.58574 9.97467 9.74437 9.94275C9.903 9.91083 10.0674 9.92721 10.2169 9.98983C10.3663 10.0524 10.494 10.1585 10.5839 10.2945C10.6737 10.4305 10.7217 10.5905 10.7217 10.7541C10.7217 10.9735 10.6355 11.1839 10.4822 11.339C10.3288 11.4941 10.1208 11.5813 9.90391 11.5813ZM11.3043 6.81305C10.89 6.43043 10.4138 6.12264 9.89641 5.90311C10.1009 5.01453 10.4007 3.89916 10.8048 2.9389C11.2955 1.77182 11.8345 1.10315 12.285 1.10315C12.3654 1.09857 12.4453 1.11811 12.5148 1.15931C12.5842 1.20052 12.6401 1.26156 12.6754 1.33477C12.9535 1.7994 12.9767 2.82308 12.7388 4.07288C12.5199 5.16892 12.1809 6.23687 11.7282 7.257C11.5961 7.10033 11.4545 6.95207 11.3043 6.81305Z" fill="#343436"/>
</svg>
