<svg width="16" height="16" viewBox="0 0 16 16"  xmlns="http://www.w3.org/2000/svg">
<path d="M11.7806 8.51451L4.28063 15.7867C4.17573 15.8885 4.04204 15.9579 3.89648 15.986C3.75092 16.0141 3.60002 15.9997 3.46291 15.9446C3.32579 15.8895 3.20861 15.7962 3.12621 15.6765C3.04381 15.5568 2.99988 15.4161 3 15.2722V0.727793C2.99988 0.58388 3.04381 0.443168 3.12621 0.323472C3.20861 0.203776 3.32579 0.110477 3.46291 0.0553887C3.60002 0.000299974 3.75092 -0.0141024 3.89648 0.014005C4.04204 0.0421124 4.17573 0.111466 4.28063 0.213285L11.7806 7.48549C11.8504 7.55303 11.9057 7.63323 11.9434 7.72152C11.9812 7.8098 12.0006 7.90443 12.0006 8C12.0006 8.09557 11.9812 8.1902 11.9434 8.27848C11.9057 8.36677 11.8504 8.44697 11.7806 8.51451Z" />
</svg>
