<svg width="16" height="16" viewBox="0 0 16 16"  xmlns="http://www.w3.org/2000/svg">
<path d="M12.3077 2.61111V12.3889C12.3077 12.551 12.2429 12.7064 12.1275 12.821C12.012 12.9356 11.8555 13 11.6923 13C11.5291 13 11.3726 12.9356 11.2572 12.821C11.1418 12.7064 11.0769 12.551 11.0769 12.3889V2.61111C11.0769 2.44903 11.1418 2.2936 11.2572 2.17899C11.3726 2.06438 11.5291 2 11.6923 2C11.8555 2 12.012 2.06438 12.1275 2.17899C12.2429 2.2936 12.3077 2.44903 12.3077 2.61111ZM15.3846 2C15.2214 2 15.0649 2.06438 14.9495 2.17899C14.8341 2.2936 14.7692 2.44903 14.7692 2.61111V12.3889C14.7692 12.551 14.8341 12.7064 14.9495 12.821C15.0649 12.9356 15.2214 13 15.3846 13C15.5478 13 15.7044 12.9356 15.8198 12.821C15.9352 12.7064 16 12.551 16 12.3889V2.61111C16 2.44903 15.9352 2.2936 15.8198 2.17899C15.7044 2.06438 15.5478 2 15.3846 2ZM8.66692 6.48097L1.88308 2.19174C1.69848 2.07453 1.48557 2.00869 1.2666 2.00109C1.04763 1.99348 0.830619 2.0444 0.638225 2.14851C0.445831 2.25262 0.285112 2.40612 0.172847 2.59297C0.0605815 2.77983 0.00088844 2.99318 0 3.21076V11.7892C0.000499981 12.0057 0.0595096 12.2181 0.170868 12.4042C0.282227 12.5903 0.441852 12.7433 0.633077 12.8472C0.825943 12.9524 1.04374 13.0041 1.26366 12.997C1.48358 12.9899 1.69752 12.9242 1.88308 12.8067L8.66692 8.5175C8.83976 8.40857 8.98209 8.25804 9.0807 8.0799C9.17932 7.90175 9.23103 7.70176 9.23103 7.49847C9.23103 7.29519 9.17932 7.09519 9.0807 6.91705C8.98209 6.7389 8.83976 6.58838 8.66692 6.47944V6.48097Z" />
</svg>
