<svg width="13" height="11" viewBox="0 0 13 11" fill="none" xmlns="http://www.w3.org/2000/svg">
<path d="M12.358 5.88351L7.50853 10.733C7.40136 10.8401 7.25554 10.8999 7.10317 10.8991C6.95079 10.8983 6.80434 10.837 6.69603 10.7287C6.58772 10.6204 6.52643 10.4739 6.52563 10.3216C6.52483 10.1692 6.58459 10.0234 6.69177 9.91621L10.5656 6.04238L0.577545 5.99001C0.425175 5.9892 0.278733 5.92789 0.170435 5.81958C0.0621374 5.71126 0.000855347 5.56481 6.97389e-05 5.41244C-0.000715869 5.26007 0.0590599 5.11426 0.166247 5.00709C0.273433 4.89993 0.41925 4.84017 0.57162 4.84099L10.5596 4.89335L6.64492 0.978687C6.53661 0.870378 6.47531 0.723928 6.47451 0.571554C6.47371 0.41918 6.53348 0.273365 6.64066 0.166185C6.74784 0.0590058 6.89365 -0.000758253 7.04603 4.0579e-05C7.1984 0.000839411 7.34485 0.0621357 7.45316 0.170445L12.3537 5.07101C12.3554 5.07271 12.3565 5.07472 12.3581 5.07639C12.3831 5.10178 12.4057 5.12941 12.4256 5.15892C12.4355 5.17352 12.4423 5.18933 12.4507 5.2046C12.4729 5.23865 12.4887 5.27644 12.4973 5.31609C12.5023 5.33263 12.5087 5.34853 12.5122 5.36566C12.5198 5.40237 12.5237 5.4397 12.524 5.4771L12.5241 5.47809C12.5242 5.51591 12.5206 5.55362 12.5134 5.59065C12.5101 5.60725 12.504 5.62257 12.4994 5.63863C12.4911 5.67889 12.4754 5.7172 12.4532 5.75163C12.4451 5.76651 12.4386 5.782 12.4291 5.79628C12.4083 5.82766 12.3845 5.85688 12.358 5.88351Z" fill="black"/>
</svg>
