<svg width="17" height="16" viewBox="0 0 17 16" fill="none" xmlns="http://www.w3.org/2000/svg">
<path fill-rule="evenodd" clip-rule="evenodd" d="M13.8384 2.32503C12.3345 0.826459 10.3344 0.000760311 8.20328 0C3.81194 0 0.238054 3.55636 0.236526 7.92777C0.235762 9.32521 0.602854 10.6892 1.29998 11.8913L0.169678 16L4.39295 14.8975C5.55648 15.5294 6.8667 15.862 8.19986 15.8624H8.20328C12.5939 15.8624 16.1682 12.3056 16.1697 7.93423C16.1704 5.81564 15.3427 3.82399 13.8384 2.32541V2.32503ZM8.20328 14.5235H8.20061C7.01261 14.5231 5.84719 14.2053 4.83034 13.605L4.58853 13.4621L2.0823 14.1163L2.75116 11.6845L2.59378 11.4351C1.93103 10.3859 1.58074 9.17314 1.58151 7.92817C1.58304 4.295 4.55338 1.33891 8.20599 1.33891C9.97457 1.33967 11.637 2.02585 12.8872 3.27162C14.1375 4.51702 14.8255 6.17299 14.8247 7.93348C14.8231 11.567 11.8528 14.5231 8.20328 14.5231V14.5235ZM11.8352 9.5883C11.6362 9.48909 10.6576 9.01006 10.475 8.94394C10.2924 8.87777 10.1599 8.84473 10.0273 9.04315C9.89474 9.24161 9.51315 9.6879 9.39701 9.8198C9.28088 9.9521 9.16474 9.96846 8.96572 9.86921C8.76674 9.77 8.12537 9.56092 7.36483 8.88613C6.77315 8.36075 6.37354 7.71223 6.25746 7.51377C6.14132 7.31535 6.24523 7.20813 6.34452 7.10967C6.4339 7.02072 6.54354 6.87817 6.64323 6.76259C6.74297 6.64701 6.77581 6.56417 6.84226 6.43223C6.90874 6.29993 6.8755 6.1844 6.82586 6.08514C6.77617 5.98593 6.37817 5.01081 6.21199 4.61433C6.05039 4.2281 5.88617 4.28056 5.7643 4.2741C5.64817 4.26839 5.51563 4.26725 5.3827 4.26725C5.24977 4.26725 5.0343 4.31667 4.85172 4.51512C4.66914 4.71354 4.15497 5.19291 4.15497 6.16764C4.15497 7.14236 4.86817 8.08479 4.96786 8.21709C5.06754 8.34938 6.37163 10.3501 8.3683 11.2085C8.84314 11.4127 9.21403 11.5347 9.50319 11.6259C9.97995 11.7769 10.4139 11.7556 10.7569 11.7046C11.1393 11.6476 11.9346 11.2252 12.1003 10.7626C12.2661 10.2999 12.2661 9.90305 12.2165 9.82055C12.1668 9.73806 12.0339 9.68826 11.8349 9.58905L11.8352 9.5883Z" fill="#343436"/>
</svg>
