<svg width="16" height="16" viewBox="0 0 16 16"  xmlns="http://www.w3.org/2000/svg">
<path d="M16 1.19613V5.27854C16 5.459 15.9298 5.63206 15.8047 5.75966C15.6797 5.88726 15.5101 5.95895 15.3333 5.95895H11.3333C11.2014 5.95905 11.0724 5.9192 10.9627 5.84445C10.8529 5.76969 10.7674 5.66339 10.7169 5.539C10.6664 5.4146 10.6532 5.27771 10.679 5.14566C10.7047 5.0136 10.7683 4.89232 10.8617 4.79716L12.3875 3.23734C11.1601 2.03706 9.52741 1.3644 7.8275 1.35858H7.79C6.04812 1.35509 4.37494 2.05172 3.1325 3.29772C3.00518 3.41902 2.83641 3.48466 2.66229 3.48058C2.48816 3.4765 2.32252 3.40304 2.20078 3.27591C2.07905 3.14878 2.0109 2.97808 2.01091 2.80032C2.01092 2.62256 2.07909 2.45187 2.20083 2.32475C3.68698 0.842817 5.67975 0.00912225 7.75747 7.44174e-05C9.83519 -0.00897341 11.8348 0.807335 13.3333 2.27627L14.8633 0.71475C14.9567 0.620068 15.0753 0.555692 15.2045 0.529729C15.3336 0.503766 15.4673 0.517378 15.5888 0.568851C15.7104 0.620323 15.8143 0.707354 15.8874 0.81898C15.9606 0.930606 15.9998 1.06183 16 1.19613ZM12.8675 12.7026C11.6326 13.9335 9.97807 14.6277 8.25194 14.6389C6.52581 14.6502 4.8627 13.9777 3.6125 12.763L5.13833 11.2057C5.23254 11.1107 5.29688 10.9892 5.32314 10.8567C5.34941 10.7242 5.33641 10.5867 5.2858 10.4618C5.2352 10.3369 5.14928 10.2302 5.03901 10.1553C4.92874 10.0804 4.79911 10.0407 4.66667 10.0414H0.666667C0.489856 10.0414 0.320287 10.113 0.195262 10.2406C0.0702382 10.3682 2.06534e-07 10.5413 2.06534e-07 10.7218V14.8042C-0.000103618 14.9388 0.0389395 15.0705 0.112187 15.1825C0.185434 15.2944 0.289591 15.3817 0.411473 15.4333C0.533356 15.4848 0.667482 15.4983 0.796871 15.472C0.926261 15.4457 1.0451 15.3808 1.13833 15.2856L2.66667 13.724C4.1435 15.1787 6.11424 15.9942 8.16667 16H8.21083C10.3009 16.0055 12.3089 15.1704 13.8 13.6755C13.9217 13.5484 13.9899 13.3777 13.9899 13.2C13.9899 13.0222 13.9218 12.8515 13.8001 12.7244C13.6783 12.5973 13.5127 12.5238 13.3385 12.5197C13.1644 12.5156 12.9957 12.5813 12.8683 12.7026H12.8675Z" />
</svg>
