<svg width="17" height="16" viewBox="0 0 17 16" fill="none" xmlns="http://www.w3.org/2000/svg">
<path fill-rule="evenodd" clip-rule="evenodd" d="M8.16953 0C3.66244 0 0.169434 3.30145 0.169434 7.76026C0.169434 10.0927 1.12558 12.108 2.68214 13.5004C2.81253 13.6179 2.8914 13.7805 2.89784 13.9559L2.9413 15.3789C2.95579 15.8328 3.4242 16.1274 3.8395 15.9455L5.42664 15.2453C5.56186 15.1857 5.71156 15.1744 5.85321 15.2131C6.58239 15.4143 7.35987 15.5205 8.16953 15.5205C12.6766 15.5205 16.1696 12.2191 16.1696 7.76026C16.1696 3.30145 12.6766 0 8.16953 0Z" fill="#343436"/>
<path fill-rule="evenodd" clip-rule="evenodd" d="M3.36626 10.0299L5.71639 6.3019C6.08983 5.70954 6.89145 5.56145 7.45162 5.98157L9.32046 7.3836C9.49269 7.51238 9.72771 7.51077 9.89833 7.38199L12.4223 5.46648C12.7587 5.21054 13.1998 5.61457 12.9728 5.97191L10.6243 9.69832C10.2509 10.2907 9.44923 10.4388 8.88906 10.0186L7.02023 8.61662C6.84799 8.48784 6.61298 8.48945 6.44235 8.61823L3.91677 10.5354C3.58034 10.7913 3.13929 10.3873 3.36626 10.0299Z" fill="white"/>
</svg>
