<svg width="18" height="21" viewBox="0 0 18 21" xmlns="http://www.w3.org/2000/svg">
<path d="M14.9608 4.22221C13.9105 3.51987 13.1531 2.39563 12.9164 1.08578C12.8655 0.802839 12.8372 0.51137 12.8372 0.213379H9.48579L9.48041 13.9932C9.42418 15.5363 8.18611 16.7749 6.66884 16.7749C6.19698 16.7749 5.753 16.654 5.36182 16.4428C4.46505 15.9587 3.8514 14.9945 3.8514 13.8848C3.8514 12.291 5.11538 10.9942 6.66835 10.9942C6.95831 10.9942 7.23653 11.0434 7.4996 11.1277V7.6175C7.22724 7.57937 6.95048 7.55579 6.66835 7.55579C3.26708 7.55579 0.5 10.3947 0.5 13.8848C0.5 16.026 1.54248 17.9208 3.13359 19.0666C4.13549 19.7885 5.35449 20.2134 6.66884 20.2134C10.0701 20.2134 12.8372 17.3744 12.8372 13.8848V6.8971C14.1515 7.86482 15.7622 8.43522 17.5 8.43522V4.99678C16.5641 4.99678 15.6923 4.71133 14.9608 4.22221Z"/>
</svg>
