<svg width="16" height="16" viewBox="0 0 16 16"  xmlns="http://www.w3.org/2000/svg">
<path d="M14.8571 2H1.14286C0.839753 2 0.549062 2.11589 0.334735 2.32218C0.120408 2.52847 0 2.80826 0 3.1V11.9C0 12.1917 0.120408 12.4715 0.334735 12.6778C0.549062 12.8841 0.839753 13 1.14286 13H14.8571C15.1602 13 15.4509 12.8841 15.6653 12.6778C15.8796 12.4715 16 12.1917 16 11.9V3.1C16 2.80826 15.8796 2.52847 15.6653 2.32218C15.4509 2.11589 15.1602 2 14.8571 2ZM8.57143 10.8H7.42857C7.27702 10.8 7.13167 10.7421 7.02451 10.6389C6.91735 10.5358 6.85714 10.3959 6.85714 10.25C6.85714 10.1041 6.91735 9.96424 7.02451 9.86109C7.13167 9.75795 7.27702 9.7 7.42857 9.7H8.57143C8.72298 9.7 8.86833 9.75795 8.97549 9.86109C9.08265 9.96424 9.14286 10.1041 9.14286 10.25C9.14286 10.3959 9.08265 10.5358 8.97549 10.6389C8.86833 10.7421 8.72298 10.8 8.57143 10.8ZM13.1429 10.8H10.8571C10.7056 10.8 10.5602 10.7421 10.4531 10.6389C10.3459 10.5358 10.2857 10.3959 10.2857 10.25C10.2857 10.1041 10.3459 9.96424 10.4531 9.86109C10.5602 9.75795 10.7056 9.7 10.8571 9.7H13.1429C13.2944 9.7 13.4398 9.75795 13.5469 9.86109C13.6541 9.96424 13.7143 10.1041 13.7143 10.25C13.7143 10.3959 13.6541 10.5358 13.5469 10.6389C13.4398 10.7421 13.2944 10.8 13.1429 10.8ZM1.14286 4.75V3.1H14.8571V4.75H1.14286Z" />
</svg>
