<svg width="17" height="16" viewBox="0 0 17 16" xmlns="http://www.w3.org/2000/svg">
<path d="M16.9915 14.159L15.9092 5.159C15.8741 4.86576 15.7308 4.59561 15.5068 4.40023C15.2827 4.20485 14.9936 4.09795 14.6948 4.1H12.1425C12.1425 3.14522 11.7586 2.22955 11.0754 1.55442C10.3922 0.879285 9.46563 0.5 8.49945 0.5C7.53326 0.5 6.60664 0.879285 5.92345 1.55442C5.24025 2.22955 4.85643 3.14522 4.85643 4.1H2.30101C2.00221 4.09795 1.71314 4.20485 1.4891 4.40023C1.26506 4.59561 1.12178 4.86576 1.08668 5.159L0.00439836 14.159C-0.0154351 14.327 0.00088493 14.4972 0.0522881 14.6585C0.103691 14.8198 0.189017 14.9686 0.30267 15.095C0.417145 15.222 0.557423 15.3237 0.714352 15.3934C0.871282 15.4632 1.04134 15.4995 1.21342 15.5H15.7794C15.9525 15.5004 16.1237 15.4645 16.2818 15.3947C16.4398 15.3249 16.5811 15.2227 16.6962 15.095C16.8093 14.9683 16.8941 14.8194 16.945 14.6582C16.9959 14.4969 17.0117 14.3268 16.9915 14.159ZM8.49945 1.7C9.14357 1.7 9.76131 1.95286 10.2168 2.40294C10.6722 2.85303 10.9281 3.46348 10.9281 4.1H6.07077C6.07077 3.46348 6.32665 2.85303 6.78211 2.40294C7.23758 1.95286 7.85532 1.7 8.49945 1.7Z" />
</svg>
