<svg width="16" height="16" viewBox="0 0 16 16"  xmlns="http://www.w3.org/2000/svg">
<path d="M15.6242 3.95006L12.0499 0.374992C11.9311 0.256107 11.79 0.1618 11.6347 0.0974584C11.4794 0.0331166 11.3129 0 11.1448 0C10.9767 0 10.8102 0.0331166 10.6549 0.0974584C10.4996 0.1618 10.3585 0.256107 10.2396 0.374992L0.375192 10.2402C0.25582 10.3586 0.161179 10.4996 0.09677 10.6549C0.032361 10.8103 -0.000530731 10.9768 6.47571e-06 11.145V14.72C6.47571e-06 15.0595 0.134858 15.3851 0.374895 15.6251C0.614933 15.8651 0.940493 16 1.27996 16H4.85502C5.02317 16.0005 5.18974 15.9676 5.34507 15.9032C5.50039 15.8388 5.64136 15.7442 5.75979 15.6248L15.6242 5.76039C15.7431 5.64153 15.8374 5.50041 15.9017 5.3451C15.9661 5.18979 15.9992 5.02333 15.9992 4.85522C15.9992 4.68711 15.9661 4.52065 15.9017 4.36534C15.8374 4.21003 15.7431 4.06891 15.6242 3.95006ZM12.7995 6.77475L9.22445 3.20048L11.1444 1.28056L14.7194 4.85482L12.7995 6.77475Z" />
</svg>
