<svg width="16" height="16" viewBox="0 0 16 16"  xmlns="http://www.w3.org/2000/svg">
<path d="M13.3333 3.33333V15.3333C13.3333 15.5101 13.2631 15.6797 13.1381 15.8047C13.013 15.9298 12.8435 16 12.6667 16H0.666667C0.489856 16 0.320287 15.9298 0.195262 15.8047C0.070238 15.6797 0 15.5101 0 15.3333V3.33333C0 3.15652 0.070238 2.98695 0.195262 2.86193C0.320287 2.7369 0.489856 2.66667 0.666667 2.66667H12.6667C12.8435 2.66667 13.013 2.7369 13.1381 2.86193C13.2631 2.98695 13.3333 3.15652 13.3333 3.33333ZM15.3333 0H3.33333C3.15652 0 2.98695 0.070238 2.86193 0.195262C2.7369 0.320287 2.66667 0.489856 2.66667 0.666667C2.66667 0.843478 2.7369 1.01305 2.86193 1.13807C2.98695 1.2631 3.15652 1.33333 3.33333 1.33333H14.6667V12.6667C14.6667 12.8435 14.7369 13.013 14.8619 13.1381C14.987 13.2631 15.1565 13.3333 15.3333 13.3333C15.5101 13.3333 15.6797 13.2631 15.8047 13.1381C15.9298 13.013 16 12.8435 16 12.6667V0.666667C16 0.489856 15.9298 0.320287 15.8047 0.195262C15.6797 0.070238 15.5101 0 15.3333 0Z" />
</svg>
