<svg width="16" height="16" viewBox="0 0 16 16"  xmlns="http://www.w3.org/2000/svg">
<path d="M11.1364 2.83915C10.2942 1.82017 9.34628 0.902601 8.31023 0.103412C8.21851 0.0361051 8.10925 0 7.99727 0C7.8853 0 7.77603 0.0361051 7.68432 0.103412C6.65017 0.902934 5.70413 1.82049 4.86364 2.83915C2.98932 5.09418 2 7.47134 2 9.71422C2 11.3813 2.63214 12.9801 3.75736 14.1589C4.88258 15.3378 6.4087 16 8 16C9.5913 16 11.1174 15.3378 12.2426 14.1589C13.3679 12.9801 14 11.3813 14 9.71422C14 7.47134 13.0107 5.09418 11.1364 2.83915Z" />
</svg>
