<svg width="16" height="16" viewBox="0 0 16 16" fill="none" xmlns="http://www.w3.org/2000/svg">
<path d="M15.8383 2.36824L13.6318 0.161663C13.5282 0.0581519 13.3879 -3.08487e-09 13.2415 0C13.0951 3.08487e-09 12.9547 0.0581519 12.8512 0.161663C12.7477 0.265174 12.6895 0.405565 12.6895 0.551952C12.6895 0.698338 12.7477 0.838729 12.8512 0.94224L12.9532 1.04361L9.14895 3.89699L6.51347 4.4245C6.40676 4.44588 6.30868 4.49815 6.23144 4.57482L0.48468 10.3202C0.174344 10.6306 0 11.0515 0 11.4904C0 11.9293 0.174344 12.3502 0.48468 12.6606L3.33944 15.5153C3.6498 15.8257 4.07072 16 4.50962 16C4.94852 16 5.36944 15.8257 5.6798 15.5153L11.4252 9.77063C11.502 9.69351 11.5543 9.59538 11.5755 9.4886L12.103 6.85312L14.9564 3.04883L15.0578 3.15089C15.109 3.20214 15.1699 3.2428 15.2368 3.27054C15.3038 3.29828 15.3756 3.31255 15.448 3.31255C15.5205 3.31255 15.5923 3.29828 15.6593 3.27054C15.7262 3.2428 15.7871 3.20214 15.8383 3.15089C15.8896 3.09964 15.9302 3.03879 15.958 2.97182C15.9857 2.90486 16 2.83308 16 2.7606C16 2.68812 15.9857 2.61634 15.958 2.54938C15.9302 2.48241 15.8896 2.42156 15.8383 2.37031V2.36824ZM4.50962 14.8947C4.43724 14.8949 4.36554 14.8808 4.29866 14.8531C4.23179 14.8254 4.17107 14.7847 4.12002 14.7334L1.26664 11.88C1.16326 11.7765 1.10519 11.6363 1.10519 11.49C1.10519 11.3438 1.16326 11.2035 1.26664 11.1001L1.65693 10.7098L5.2902 14.3431L4.89784 14.7334C4.79481 14.8363 4.65525 14.8943 4.50962 14.8947ZM11.1452 6.28906C11.0958 6.35487 11.0618 6.43101 11.0459 6.51179L10.5267 9.10659L9.9316 9.70167L6.29833 6.0684L6.89342 5.47331L9.48822 4.95408C9.56899 4.93819 9.64513 4.90425 9.71094 4.85478L13.7414 1.83177L14.1682 2.2586L11.1452 6.28906Z" fill="#343436"/>
</svg>
