<svg width="16" height="16" viewBox="0 0 16 16" fill="none" xmlns="http://www.w3.org/2000/svg">
<path d="M15.2666 3.5817L8.97923 0.141512C8.81124 0.0486893 8.62245 0 8.43052 0C8.23859 0 8.0498 0.0486893 7.8818 0.141512L1.59444 3.58313C1.41489 3.68137 1.265 3.82602 1.16044 4.00197C1.05587 4.17792 1.00046 4.37872 1 4.58339V11.4166C1.00046 11.6213 1.05587 11.8221 1.16044 11.998C1.265 12.174 1.41489 12.3186 1.59444 12.4169L7.8818 15.8585C8.0498 15.9513 8.23859 16 8.43052 16C8.62245 16 8.81124 15.9513 8.97923 15.8585L15.2666 12.4169C15.4462 12.3186 15.596 12.174 15.7006 11.998C15.8052 11.8221 15.8606 11.6213 15.861 11.4166V4.5841C15.861 4.37907 15.8057 4.17782 15.7011 4.00146C15.5966 3.8251 15.4465 3.68012 15.2666 3.5817ZM8.43052 1.14177L14.1713 4.28546L12.0436 5.44933L6.30282 2.30565L8.43052 1.14177ZM8.43052 7.42914L2.68973 4.28546L5.11251 2.95868L10.8533 6.10236L8.43052 7.42914ZM14.7179 11.4195L9.0021 14.5481V8.41725L11.2884 7.16621V9.71545C11.2884 9.86704 11.3486 10.0124 11.4558 10.1196C11.563 10.2268 11.7084 10.287 11.86 10.287C12.0116 10.287 12.157 10.2268 12.2642 10.1196C12.3713 10.0124 12.4316 9.86704 12.4316 9.71545V6.54033L14.7179 5.28929V11.4166V11.4195Z" fill="#343436"/>
</svg>
