<svg width="16" height="16" viewBox="0 0 16 16" class="icon-verified" xmlns="http://www.w3.org/2000/svg">
<path d="M14.99 6.20143C14.7207 5.92 14.4421 5.63 14.3371 5.375C14.24 5.14143 14.2343 4.75429 14.2286 4.37929C14.2179 3.68214 14.2064 2.89214 13.6571 2.34286C13.1079 1.79357 12.3179 1.78214 11.6207 1.77143C11.2457 1.76571 10.8586 1.76 10.625 1.66286C10.3707 1.55786 10.08 1.27929 9.79857 1.01C9.30571 0.536429 8.74571 0 8 0C7.25429 0 6.695 0.536429 6.20143 1.01C5.92 1.27929 5.63 1.55786 5.375 1.66286C5.14286 1.76 4.75429 1.76571 4.37929 1.77143C3.68214 1.78214 2.89214 1.79357 2.34286 2.34286C1.79357 2.89214 1.78571 3.68214 1.77143 4.37929C1.76571 4.75429 1.76 5.14143 1.66286 5.375C1.55786 5.62929 1.27929 5.92 1.01 6.20143C0.536429 6.69429 0 7.25429 0 8C0 8.74571 0.536429 9.305 1.01 9.79857C1.27929 10.08 1.55786 10.37 1.66286 10.625C1.76 10.8586 1.76571 11.2457 1.77143 11.6207C1.78214 12.3179 1.79357 13.1079 2.34286 13.6571C2.89214 14.2064 3.68214 14.2179 4.37929 14.2286C4.75429 14.2343 5.14143 14.24 5.375 14.3371C5.62929 14.4421 5.92 14.7207 6.20143 14.99C6.69429 15.4636 7.25429 16 8 16C8.74571 16 9.305 15.4636 9.79857 14.99C10.08 14.7207 10.37 14.4421 10.625 14.3371C10.8586 14.24 11.2457 14.2343 11.6207 14.2286C12.3179 14.2179 13.1079 14.2064 13.6571 13.6571C14.2064 13.1079 14.2179 12.3179 14.2286 11.6207C14.2343 11.2457 14.24 10.8586 14.3371 10.625C14.4421 10.3707 14.7207 10.08 14.99 9.79857C15.4636 9.30571 16 8.74571 16 8C16 7.25429 15.4636 6.695 14.99 6.20143ZM11.2614 6.69L7.26143 10.69C7.20836 10.7431 7.14534 10.7853 7.07597 10.814C7.0066 10.8428 6.93224 10.8576 6.85714 10.8576C6.78205 10.8576 6.70769 10.8428 6.63832 10.814C6.56895 10.7853 6.50593 10.7431 6.45286 10.69L4.73857 8.97571C4.63135 8.86849 4.57111 8.72307 4.57111 8.57143C4.57111 8.41979 4.63135 8.27437 4.73857 8.16714C4.84579 8.05992 4.99122 7.99968 5.14286 7.99968C5.29449 7.99968 5.43992 8.05992 5.54714 8.16714L6.85714 9.47786L10.4529 5.88143C10.5059 5.82834 10.569 5.78622 10.6383 5.75749C10.7077 5.72876 10.7821 5.71397 10.8571 5.71397C10.9322 5.71397 11.0066 5.72876 11.0759 5.75749C11.1453 5.78622 11.2083 5.82834 11.2614 5.88143C11.3145 5.93452 11.3566 5.99755 11.3854 6.06692C11.4141 6.13628 11.4289 6.21063 11.4289 6.28571C11.4289 6.3608 11.4141 6.43514 11.3854 6.50451C11.3566 6.57388 11.3145 6.63691 11.2614 6.69Z" />
</svg>
