<svg width="16" height="16" viewBox="0 0 16 16" xmlns="http://www.w3.org/2000/svg">
<path d="M15.9141 15.2C15.8601 15.2913 15.7824 15.367 15.6888 15.4197C15.5953 15.4723 15.4891 15.5 15.381 15.5H0.611003C0.503028 15.4999 0.396983 15.4721 0.303515 15.4194C0.210048 15.3667 0.132448 15.291 0.0785085 15.1998C0.0245689 15.1086 -0.00381188 15.0052 -0.00378416 14.8999C-0.00375644 14.7947 0.0246788 14.6913 0.0786664 14.6001C1.25027 12.6256 3.05575 11.2098 5.16279 10.5387C4.12055 9.93385 3.3108 9.01224 2.85789 7.91538C2.40497 6.81851 2.33393 5.60705 2.65568 4.46702C2.97744 3.32699 3.67419 2.32144 4.63894 1.60478C5.60368 0.888129 6.78309 0.5 7.99602 0.5C9.20896 0.5 10.3884 0.888129 11.3531 1.60478C12.3179 2.32144 13.0146 3.32699 13.3364 4.46702C13.6581 5.60705 13.5871 6.81851 13.1342 7.91538C12.6812 9.01224 11.8715 9.93385 10.8293 10.5387C12.9363 11.2098 14.7418 12.6256 15.9134 14.6001C15.9675 14.6913 15.9961 14.7947 15.9962 14.9C15.9964 15.0053 15.968 15.1088 15.9141 15.2Z" />
</svg>
