<svg width="19" height="18" viewBox="0 0 19 18" xmlns="http://www.w3.org/2000/svg">
<path d="M9.5041 4.72119C6.94874 4.72119 4.88758 6.7251 4.88758 9.20947C4.88758 11.6938 6.94874 13.6978 9.5041 13.6978C12.0595 13.6978 14.1206 11.6938 14.1206 9.20947C14.1206 6.7251 12.0595 4.72119 9.5041 4.72119ZM9.5041 12.1274C7.85276 12.1274 6.50276 10.8188 6.50276 9.20947C6.50276 7.6001 7.84874 6.2915 9.5041 6.2915C11.1595 6.2915 12.5054 7.6001 12.5054 9.20947C12.5054 10.8188 11.1554 12.1274 9.5041 12.1274ZM15.3862 4.5376C15.3862 5.11963 14.9041 5.58447 14.3095 5.58447C13.7108 5.58447 13.2327 5.11572 13.2327 4.5376C13.2327 3.95947 13.7148 3.49072 14.3095 3.49072C14.9041 3.49072 15.3862 3.95947 15.3862 4.5376ZM18.4438 5.6001C18.3755 4.19775 18.0461 2.95557 16.9894 1.93213C15.9367 0.908691 14.659 0.588379 13.2166 0.518066C11.73 0.436035 7.27419 0.436035 5.78758 0.518066C4.34919 0.584473 3.07151 0.904785 2.01482 1.92822C0.95812 2.95166 0.632673 4.19385 0.560352 5.59619C0.475977 7.0415 0.475977 11.3735 0.560352 12.8188C0.628655 14.2212 0.95812 15.4634 2.01482 16.4868C3.07151 17.5103 4.34517 17.8306 5.78758 17.9009C7.27419 17.9829 11.73 17.9829 13.2166 17.9009C14.659 17.8345 15.9367 17.5142 16.9894 16.4868C18.042 15.4634 18.3715 14.2212 18.4438 12.8188C18.5282 11.3735 18.5282 7.04541 18.4438 5.6001ZM16.5233 14.3696C16.2099 15.1353 15.6032 15.7251 14.8117 16.0337C13.6264 16.4907 10.8139 16.3853 9.5041 16.3853C8.19428 16.3853 5.37776 16.4868 4.19651 16.0337C3.40901 15.729 2.80232 15.1392 2.48491 14.3696C2.01482 13.2173 2.1233 10.4829 2.1233 9.20947C2.1233 7.93604 2.01883 5.19775 2.48491 4.04932C2.7983 3.28369 3.40499 2.69385 4.19651 2.38525C5.38178 1.92822 8.19428 2.03369 9.5041 2.03369C10.8139 2.03369 13.6304 1.93213 14.8117 2.38525C15.5992 2.68994 16.2059 3.27979 16.5233 4.04932C16.9934 5.20166 16.8849 7.93604 16.8849 9.20947C16.8849 10.4829 16.9934 13.2212 16.5233 14.3696Z"/>
</svg>
