<svg width="16" height="16" viewBox="0 0 16 16"  xmlns="http://www.w3.org/2000/svg">
<path d="M15.7262 5.10495L8.34154 0.105091C8.24041 0.0365682 8.12157 0 8 0C7.87843 0 7.75959 0.0365682 7.65846 0.105091L0.273846 5.10495C0.189547 5.16208 0.120442 5.23946 0.0726691 5.33022C0.0248963 5.42099 -6.56915e-05 5.52233 1.29834e-07 5.62525V13.75C1.29834e-07 14.0815 0.12967 14.3995 0.360484 14.6339C0.591298 14.8683 0.904349 15 1.23077 15H14.7692C15.0957 15 15.4087 14.8683 15.6395 14.6339C15.8703 14.3995 16 14.0815 16 13.75V5.62525C16.0001 5.52233 15.9751 5.42099 15.9273 5.33022C15.8796 5.23946 15.8105 5.16208 15.7262 5.10495ZM5.59385 10.0001L1.23077 13.1251V6.8385L5.59385 10.0001ZM6.85308 10.6251H9.14692L13.5031 13.75H2.49692L6.85308 10.6251ZM10.4062 10.0001L14.7692 6.8385V13.1251L10.4062 10.0001Z" />
</svg>
