<svg width="16" height="16" viewBox="0 0 16 16"  xmlns="http://www.w3.org/2000/svg">
<path d="M12.0006 0.727793V15.2722C12.0007 15.4161 11.9568 15.5568 11.8744 15.6765C11.792 15.7962 11.6748 15.8895 11.5377 15.9446C11.4006 15.9997 11.2497 16.0141 11.1041 15.986C10.9585 15.9579 10.8249 15.8885 10.72 15.7867L3.21996 8.51451C3.15023 8.44697 3.09491 8.36677 3.05717 8.27848C3.01943 8.1902 3 8.09557 3 8C3 7.90443 3.01943 7.8098 3.05717 7.72152C3.09491 7.63323 3.15023 7.55303 3.21996 7.48549L10.72 0.213285C10.8249 0.111466 10.9585 0.0421124 11.1041 0.014005C11.2497 -0.0141024 11.4006 0.000299974 11.5377 0.0553887C11.6748 0.110477 11.792 0.203776 11.8744 0.323472C11.9568 0.443168 12.0007 0.58388 12.0006 0.727793Z" />
</svg>
