<svg width="16" height="16" viewBox="0 0 16 16" fill="none" xmlns="http://www.w3.org/2000/svg">
<path d="M7.99822 12.2758C8.18144 12.3979 8.37226 12.5081 8.56952 12.6058V15.4287C8.56952 15.5802 8.50933 15.7255 8.40219 15.8327C8.29505 15.9398 8.14974 16 7.99822 16C7.8467 16 7.70139 15.9398 7.59425 15.8327C7.48711 15.7255 7.42692 15.5802 7.42692 15.4287V12.6058C7.62418 12.5081 7.815 12.3979 7.99822 12.2758ZM13.0042 3.3307C12.591 2.34396 11.8953 1.50135 11.0046 0.908757C10.114 0.31616 9.06802 0 7.99822 0C6.92842 0 5.88249 0.31616 4.99182 0.908757C4.10115 1.50135 3.40548 2.34396 2.9922 3.3307C2.09969 3.73864 1.34319 4.39442 0.812718 5.22C0.282249 6.04558 0.000157645 7.0062 1.66404e-05 7.98751C-0.00712461 10.7155 2.28522 13.0721 5.00889 13.1435C5.84662 13.1634 6.67656 12.9788 7.42692 12.6058V10.0685L4.31476 8.51311C4.17915 8.44531 4.07603 8.32641 4.02809 8.18257C3.98014 8.03874 3.9913 7.88175 4.0591 7.74614C4.12691 7.61053 4.24581 7.50741 4.38964 7.45947C4.53348 7.41152 4.69047 7.42268 4.82608 7.49048L7.42692 8.79162V5.1453C7.42692 4.99378 7.48711 4.84847 7.59425 4.74133C7.70139 4.63419 7.8467 4.574 7.99822 4.574C8.14974 4.574 8.29505 4.63419 8.40219 4.74133C8.50933 4.84847 8.56952 4.99378 8.56952 5.1453V7.07772L11.1704 5.77658C11.2375 5.74301 11.3106 5.72299 11.3855 5.71767C11.4604 5.71235 11.5356 5.72183 11.6068 5.74557C11.678 5.76931 11.7439 5.80684 11.8006 5.85603C11.8573 5.90522 11.9038 5.96509 11.9373 6.03224C11.9709 6.09939 11.9909 6.17249 11.9962 6.24737C12.0016 6.32226 11.9921 6.39745 11.9684 6.46867C11.9446 6.53989 11.9071 6.60574 11.8579 6.66245C11.8087 6.71917 11.7488 6.76564 11.6817 6.79921L8.56952 8.35458V12.6058C9.27974 12.9584 10.0618 13.1424 10.8547 13.1435H10.9847C13.7112 13.0721 16.0043 10.7155 15.9964 7.98751C15.9963 7.0062 15.7142 6.04558 15.1837 5.22C14.6533 4.39442 13.8967 3.73864 13.0042 3.3307Z" fill="#343436"/>
</svg>
