<svg width="19" height="14" viewBox="0 0 19 14" xmlns="http://www.w3.org/2000/svg">
<path d="M18.5852 2.57567C18.3672 1.74423 17.7246 1.08941 16.9087 0.867184C15.4299 0.463379 9.5 0.463379 9.5 0.463379C9.5 0.463379 3.57014 0.463379 2.09129 0.867184C1.27542 1.08944 0.632849 1.74423 0.414759 2.57567C0.0185089 4.08271 0.0185089 7.22702 0.0185089 7.22702C0.0185089 7.22702 0.0185089 10.3713 0.414759 11.8784C0.632849 12.7098 1.27542 13.3374 2.09129 13.5596C3.57014 13.9634 9.5 13.9634 9.5 13.9634C9.5 13.9634 15.4299 13.9634 16.9087 13.5596C17.7246 13.3374 18.3672 12.7098 18.5852 11.8784C18.9815 10.3713 18.9815 7.22702 18.9815 7.22702C18.9815 7.22702 18.9815 4.08271 18.5852 2.57567ZM7.56059 10.0818V4.37223L12.5168 7.22709L7.56059 10.0818Z"/>
</svg>
