<svg width="16" height="12" viewBox="0 0 16 12" xmlns="http://www.w3.org/2000/svg">
<path d="M0 1C0 0.723858 0.227928 0.5 0.509091 0.5H11.4909C11.7721 0.5 12 0.723858 12 1C12 1.27614 11.7721 1.5 11.4909 1.5H0.509091C0.227928 1.5 0 1.27614 0 1Z" />
<path d="M0 6C0 5.72386 0.227928 5.5 0.509091 5.5H15.4909C15.7721 5.5 16 5.72386 16 6C16 6.27614 15.7721 6.5 15.4909 6.5H0.509091C0.227928 6.5 0 6.27614 0 6Z" />
<path d="M0 11C0 10.7239 0.227928 10.5 0.509091 10.5H9.49091C9.77207 10.5 10 10.7239 10 11C10 11.2761 9.77207 11.5 9.49091 11.5H0.509091C0.227928 11.5 0 11.2761 0 11Z" />
</svg>
