<svg width="16" height="16" viewBox="0 0 16 16"  xmlns="http://www.w3.org/2000/svg">
<path d="M13.8333 5.33333H11.5V3.55556C11.5 2.61256 11.1313 1.70819 10.4749 1.0414C9.8185 0.374602 8.92826 0 8 0C7.07174 0 6.1815 0.374602 5.52513 1.0414C4.86875 1.70819 4.5 2.61256 4.5 3.55556V5.33333H2.16667C1.85725 5.33333 1.5605 5.4582 1.34171 5.68047C1.12292 5.90273 1 6.20419 1 6.51852V14.8148C1 15.1291 1.12292 15.4306 1.34171 15.6529C1.5605 15.8751 1.85725 16 2.16667 16H13.8333C14.1428 16 14.4395 15.8751 14.6583 15.6529C14.8771 15.4306 15 15.1291 15 14.8148V6.51852C15 6.20419 14.8771 5.90273 14.6583 5.68047C14.4395 5.4582 14.1428 5.33333 13.8333 5.33333ZM8 11.5556C7.82694 11.5556 7.65777 11.5034 7.51388 11.4058C7.36998 11.3081 7.25783 11.1693 7.19161 11.0068C7.12538 10.8444 7.10805 10.6657 7.14181 10.4933C7.17557 10.3208 7.25891 10.1624 7.38128 10.0381C7.50365 9.91381 7.65956 9.82916 7.8293 9.79486C7.99903 9.76056 8.17496 9.77816 8.33485 9.84544C8.49473 9.91272 8.63139 10.0266 8.72754 10.1728C8.82368 10.319 8.875 10.4909 8.875 10.6667C8.875 10.9024 8.78281 11.1285 8.61872 11.2952C8.45462 11.4619 8.23206 11.5556 8 11.5556ZM10.3333 5.33333H5.66667V3.55556C5.66667 2.92689 5.9125 2.32398 6.35008 1.87945C6.78767 1.43492 7.38116 1.18519 8 1.18519C8.61884 1.18519 9.21233 1.43492 9.64991 1.87945C10.0875 2.32398 10.3333 2.92689 10.3333 3.55556V5.33333Z" />
</svg>
