<svg width="16" height="16" viewBox="0 0 16 16" fill="none" xmlns="http://www.w3.org/2000/svg">
<path d="M5.71429 6.28571C5.60127 6.28571 5.49079 6.2522 5.39682 6.18941C5.30285 6.12662 5.2296 6.03738 5.18635 5.93296C5.1431 5.82855 5.13179 5.71365 5.15384 5.60281C5.17589 5.49196 5.23031 5.39014 5.31023 5.31023C5.39014 5.23031 5.49196 5.17589 5.60281 5.15384C5.71365 5.13179 5.82855 5.1431 5.93296 5.18635C6.03738 5.2296 6.12662 5.30285 6.18941 5.39682C6.2522 5.49079 6.28571 5.60127 6.28571 5.71429C6.28571 5.86584 6.22551 6.01118 6.11835 6.11835C6.01118 6.22551 5.86584 6.28571 5.71429 6.28571ZM10.2857 9.71429C10.1727 9.71429 10.0622 9.7478 9.96825 9.81059C9.87427 9.87338 9.80103 9.96262 9.75778 10.067C9.71453 10.1715 9.70322 10.2863 9.72527 10.3972C9.74731 10.508 9.80174 10.6099 9.88165 10.6898C9.96157 10.7697 10.0634 10.8241 10.1742 10.8462C10.2851 10.8682 10.4 10.8569 10.5044 10.8136C10.6088 10.7704 10.6981 10.6972 10.7608 10.6032C10.8236 10.5092 10.8571 10.3987 10.8571 10.2857C10.8571 10.1342 10.7969 9.98882 10.6898 9.88165C10.5826 9.77449 10.4373 9.71429 10.2857 9.71429ZM16 8C16 8.74571 15.4636 9.305 14.99 9.79857C14.7207 10.08 14.4421 10.37 14.3371 10.625C14.24 10.8586 14.2343 11.2457 14.2286 11.6207C14.2179 12.3179 14.2064 13.1079 13.6571 13.6571C13.1079 14.2064 12.3179 14.2179 11.6207 14.2286C11.2457 14.2343 10.8586 14.24 10.625 14.3371C10.37 14.4421 10.08 14.7207 9.79857 14.99C9.305 15.4636 8.74571 16 8 16C7.25429 16 6.695 15.4636 6.20143 14.99C5.92 14.7207 5.63 14.4421 5.375 14.3371C5.14143 14.24 4.75429 14.2343 4.37929 14.2286C3.68214 14.2179 2.89214 14.2064 2.34286 13.6571C1.79357 13.1079 1.78214 12.3179 1.77143 11.6207C1.76571 11.2457 1.76 10.8586 1.66286 10.625C1.55786 10.37 1.27929 10.08 1.01 9.79857C0.536429 9.305 0 8.74571 0 8C0 7.25429 0.536429 6.695 1.01 6.20143C1.27929 5.92 1.55786 5.63 1.66286 5.375C1.76 5.14143 1.76571 4.75429 1.77143 4.37929C1.78214 3.68214 1.79357 2.89214 2.34286 2.34286C2.89214 1.79357 3.68214 1.78214 4.37929 1.77143C4.75429 1.76571 5.14143 1.76 5.375 1.66286C5.63 1.55786 5.92 1.27929 6.20143 1.01C6.695 0.536429 7.25429 0 8 0C8.74571 0 9.305 0.536429 9.79857 1.01C10.08 1.27929 10.37 1.55786 10.625 1.66286C10.8586 1.76 11.2457 1.76571 11.6207 1.77143C12.3179 1.78214 13.1079 1.79357 13.6571 2.34286C14.2064 2.89214 14.2179 3.68214 14.2286 4.37929C14.2343 4.75429 14.24 5.14143 14.3371 5.375C14.4421 5.63 14.7207 5.92 14.99 6.20143C15.4636 6.695 16 7.25429 16 8ZM5.71429 7.42857C6.05334 7.42857 6.38478 7.32803 6.66669 7.13966C6.94861 6.95129 7.16833 6.68356 7.29808 6.37031C7.42783 6.05707 7.46178 5.71238 7.39563 5.37985C7.32949 5.04731 7.16622 4.74185 6.92647 4.5021C6.68672 4.26236 6.38127 4.09909 6.04873 4.03294C5.71619 3.96679 5.3715 4.00074 5.05826 4.13049C4.74501 4.26024 4.47728 4.47997 4.28891 4.76188C4.10054 5.04379 4 5.37523 4 5.71429C4 6.16894 4.18061 6.60498 4.5021 6.92647C4.82359 7.24796 5.25963 7.42857 5.71429 7.42857ZM11.2614 5.54714C11.3145 5.49405 11.3566 5.43102 11.3854 5.36166C11.4141 5.29229 11.4289 5.21794 11.4289 5.14286C11.4289 5.06777 11.4141 4.99343 11.3854 4.92406C11.3566 4.85469 11.3145 4.79166 11.2614 4.73857C11.2083 4.68548 11.1453 4.64337 11.0759 4.61463C11.0066 4.5859 10.9322 4.57111 10.8571 4.57111C10.7821 4.57111 10.7077 4.5859 10.6383 4.61463C10.569 4.64337 10.5059 4.68548 10.4529 4.73857L4.73857 10.4529C4.68548 10.5059 4.64337 10.569 4.61463 10.6383C4.5859 10.7077 4.57111 10.7821 4.57111 10.8571C4.57111 10.9322 4.5859 11.0066 4.61463 11.0759C4.64337 11.1453 4.68548 11.2083 4.73857 11.2614C4.84579 11.3687 4.99122 11.4289 5.14286 11.4289C5.21794 11.4289 5.29229 11.4141 5.36166 11.3854C5.43102 11.3566 5.49405 11.3145 5.54714 11.2614L11.2614 5.54714ZM12 10.2857C12 9.94666 11.8995 9.61522 11.7111 9.33331C11.5227 9.0514 11.255 8.83167 10.9417 8.70192C10.6285 8.57217 10.2838 8.53822 9.95127 8.60437C9.61873 8.67051 9.31328 8.83378 9.07353 9.07353C8.83378 9.31328 8.67051 9.61873 8.60437 9.95127C8.53822 10.2838 8.57217 10.6285 8.70192 10.9417C8.83167 11.255 9.0514 11.5227 9.33331 11.7111C9.61522 11.8995 9.94666 12 10.2857 12C10.7404 12 11.1764 11.8194 11.4979 11.4979C11.8194 11.1764 12 10.7404 12 10.2857Z" fill="#343436"/>
</svg>
