<svg width="16" height="16" viewBox="0 0 16 16"  xmlns="http://www.w3.org/2000/svg">
<path d="M15.9445 11.5375C15.8895 11.6745 15.7963 11.7917 15.6767 11.8741C15.5571 11.9565 15.4165 12.0006 15.2727 12.0006H0.727817C0.583898 12.0007 0.443182 11.9568 0.323482 11.8744C0.203782 11.792 0.110481 11.6748 0.0553905 11.5377C0.000299984 11.4006 -0.0141028 11.2497 0.0140055 11.1041C0.0421137 10.9585 0.111469 10.8249 0.213292 10.72L7.48573 3.21996C7.55327 3.15023 7.63348 3.09491 7.72176 3.05717C7.81005 3.01943 7.90468 3 8.00026 3C8.09583 3 8.19046 3.01943 8.27875 3.05717C8.36703 3.09491 8.44724 3.15023 8.51478 3.21996L15.7872 10.72C15.8889 10.8249 15.9581 10.9586 15.9861 11.1041C16.0141 11.2496 15.9996 11.4004 15.9445 11.5375Z" />
</svg>
