<svg width="16" height="16" viewBox="0 0 16 16"  xmlns="http://www.w3.org/2000/svg">
<path d="M15.7867 4.28054L8.51451 11.7801C8.44697 11.8498 8.36677 11.9051 8.27848 11.9428C8.1902 11.9806 8.09557 12 8 12C7.90443 12 7.8098 11.9806 7.72152 11.9428C7.63323 11.9051 7.55303 11.8498 7.48549 11.7801L0.213285 4.28054C0.111466 4.17566 0.0421124 4.04198 0.014005 3.89642C-0.0141024 3.75087 0.000299974 3.59999 0.0553887 3.46288C0.110477 3.32577 0.203776 3.2086 0.323472 3.1262C0.443168 3.0438 0.58388 2.99988 0.727793 3H15.2722C15.4161 2.99988 15.5568 3.0438 15.6765 3.1262C15.7962 3.2086 15.8895 3.32577 15.9446 3.46288C15.9997 3.59999 16.0141 3.75087 15.986 3.89642C15.9579 4.04198 15.8885 4.17566 15.7867 4.28054Z" />
</svg>
