<svg width="15" height="16" viewBox="0 0 15 16" fill="none" xmlns="http://www.w3.org/2000/svg">
<path d="M15 7.67969V15.36C15 15.5297 14.9342 15.6925 14.8169 15.8125C14.6997 15.9326 14.5408 16 14.375 16H10C9.83424 16 9.67527 15.9326 9.55806 15.8125C9.44085 15.6925 9.375 15.5297 9.375 15.36V11.1998C9.375 11.1149 9.34208 11.0336 9.28347 10.9735C9.22487 10.9135 9.14538 10.8798 9.0625 10.8798H5.9375C5.85462 10.8798 5.77513 10.9135 5.71653 10.9735C5.65792 11.0336 5.625 11.1149 5.625 11.1998V15.36C5.625 15.5297 5.55915 15.6925 5.44194 15.8125C5.32473 15.9326 5.16576 16 5 16H0.625C0.45924 16 0.300269 15.9326 0.183058 15.8125C0.0658481 15.6925 0 15.5297 0 15.36V7.67969C0.000153664 7.34026 0.13195 7.01479 0.366406 6.77486L6.61641 0.374621C6.8508 0.134747 7.16862 0 7.5 0C7.83138 0 8.1492 0.134747 8.38359 0.374621L14.6336 6.77486C14.868 7.01479 14.9998 7.34026 15 7.67969Z" fill="#343436"/>
</svg>
