<svg width="226" height="28" viewBox="0 0 226 28" xmlns="http://www.w3.org/2000/svg">
<g clip-path="url(#clip0_1625_2774)">
<path d="M24.5526 27.5828H17.4672V0.412109H24.5526V27.5828ZM21.2565 16.6321H3.46033V11.1567H21.2565V16.6321ZM7.08557 27.5828H0.00012207V0.412109H7.08557V27.5828Z" />
<path d="M38.1054 16.6317H44.7792L41.4419 5.63973L38.1054 16.6317ZM55.2846 27.5824H47.9928L46.0977 21.4483H36.787L34.8515 27.5824H27.7239L37.2812 0.411743H45.7676L55.2846 27.5824Z" />
<path d="M58.4565 0.412109H65.542V27.5828H58.4565V0.412109Z" />
<path d="M87.7047 14.1206L96.3975 27.5818H88.5693L81.6076 15.6846L87.7047 14.1206ZM83.544 12.6381C84.9169 12.6381 85.9465 12.3645 86.6339 11.8153C87.3193 11.2662 87.6635 10.3882 87.6635 9.18027C87.6635 8.00048 87.3193 7.13649 86.6339 6.58642C85.9465 6.03823 84.9169 5.76366 83.544 5.76366H78.5178V12.6381H83.544ZM84.5324 0.411987C87.7723 0.411987 90.2929 1.1729 92.0924 2.69659C93.89 4.21935 94.7902 6.24345 94.7902 8.76889C94.7902 11.5408 93.8975 13.6539 92.1121 15.1083C90.3266 16.5635 87.8145 17.2898 84.5737 17.2898L83.9144 17.6609H78.5178V27.5818H71.5562V0.411987H84.5324Z" />
<path d="M104.677 24.4946H111.804C113.753 24.4946 115.202 24.0973 116.15 23.3008C117.098 22.5052 117.572 21.3938 117.572 19.9657C117.572 18.5123 117.098 17.3934 116.15 16.611C115.202 15.8294 113.753 15.4377 111.804 15.4377H104.677V24.4946ZM104.677 12.3501H111.103C114.949 12.3501 116.871 10.8685 116.871 7.90359C116.871 4.96772 114.949 3.49931 111.103 3.49931H104.677V12.3501ZM101.381 27.5823V0.411621H111.062C114.276 0.411621 116.624 1.08445 118.107 2.42822C119.59 3.77387 120.331 5.59837 120.331 7.90359C120.331 9.27642 119.933 10.5181 119.137 11.6294C118.34 12.7418 117.214 13.4483 115.759 13.7501V13.7913C117.378 14.093 118.663 14.8277 119.61 15.9934C120.558 17.1601 121.032 18.4842 121.032 19.9657C121.032 22.2719 120.166 24.1179 118.436 25.5029C116.706 26.8898 114.234 27.5823 111.021 27.5823H101.381Z" />
<path d="M147.087 0.411621V17.4553C147.087 20.9412 146.166 23.5688 144.326 25.339C142.487 27.1091 139.85 27.9937 136.417 27.9937C133.011 27.9937 130.381 27.1091 128.528 25.339C126.674 23.5688 125.747 20.9412 125.747 17.4553V0.411621H129.043V16.6316C129.043 19.4588 129.641 21.5447 130.835 22.8894C132.03 24.2341 133.89 24.906 136.417 24.906C138.944 24.906 140.804 24.2341 141.999 22.8894C143.194 21.5447 143.791 19.4588 143.791 16.6316V0.411621H147.087Z" />
<path d="M166.602 13.8734L175.583 27.582H171.67L163.842 15.6848L166.602 13.8734ZM164.707 13.2146C166.657 13.2146 168.106 12.8098 169.054 12.0002C170.001 11.1905 170.474 9.97699 170.474 8.35678C170.474 6.7375 170.001 5.52398 169.054 4.7134C168.106 3.9047 166.657 3.49894 164.707 3.49894H157.746V13.2146H164.707ZM164.749 0.411255C167.522 0.411255 169.747 1.12531 171.422 2.55249C173.097 3.97966 173.935 5.91474 173.935 8.35678C173.935 10.7998 173.091 12.7002 171.402 14.0589C169.713 15.4177 167.481 16.0961 164.707 16.0961L164.419 16.3023H157.746V27.582H154.449V0.411255H164.749Z" />
<path d="M189.579 0C191.968 0 194.028 0.487283 195.759 1.46091C197.489 2.43641 198.93 3.86921 200.083 5.76399L197.324 7.90429C196.307 6.1482 195.161 4.90563 193.884 4.17845C192.607 3.45127 191.061 3.08769 189.25 3.08769C187.793 3.08769 186.592 3.29384 185.644 3.70522C184.697 4.1166 184.003 4.65917 183.564 5.33106C183.125 6.00389 182.905 6.76574 182.905 7.61567C182.905 8.57712 183.207 9.42049 183.812 10.1477C184.415 10.8748 185.624 11.4446 187.436 11.856L193.328 13.1735C195.937 13.7498 197.756 14.6213 198.786 15.788C199.816 16.9546 200.331 18.4015 200.331 20.1313C200.331 21.6682 199.899 23.0335 199.033 24.2273C198.168 25.4212 196.953 26.347 195.387 27.0058C193.822 27.6645 191.981 27.9944 189.867 27.9944C187.89 27.9944 186.152 27.7264 184.656 27.1913C183.158 26.6562 181.875 25.9356 180.805 25.0295C179.733 24.1242 178.853 23.1094 178.168 21.984L181.051 19.6366C181.573 20.6805 182.246 21.5997 183.07 22.3953C183.893 23.1919 184.889 23.8085 186.057 24.2479C187.223 24.6874 188.562 24.9067 190.073 24.9067C191.474 24.9067 192.689 24.7352 193.719 24.3923C194.749 24.0493 195.538 23.5414 196.088 22.8686C196.637 22.1967 196.912 21.3805 196.912 20.419C196.912 19.541 196.623 18.752 196.046 18.052C195.47 17.352 194.385 16.8244 192.793 16.4664L186.407 15.0261C184.731 14.6419 183.379 14.1143 182.349 13.4406C181.318 12.7687 180.578 11.9731 180.125 11.0529C179.671 10.1345 179.445 9.13936 179.445 8.06922C179.445 6.61486 179.849 5.27671 180.66 4.05476C181.469 2.83374 182.637 1.85261 184.162 1.11138C185.685 0.370148 187.492 0 189.579 0Z" />
<path d="M225.129 0.411621V3.49931H215.655V27.5823H212.359V3.49931H202.884V0.411621H225.129Z" />
</g>
</svg>
