
<svg width="198" height="16" viewBox="0 0 198 16" fill="none" xmlns="http://www.w3.org/2000/svg">
<rect x="0.12" y="0.12" width="22.76" height="15.76" rx="2.38" fill="white" stroke="#D9D9D9" stroke-width="0.24"/>
<path fill-rule="evenodd" clip-rule="evenodd" d="M7.02517 10.8389H5.63182L4.58697 6.79494C4.53738 6.60892 4.43208 6.44446 4.27718 6.36696C3.89063 6.17217 3.46468 6.01716 3 5.93897V5.78328H5.24458C5.55437 5.78328 5.78671 6.01716 5.82543 6.28877L6.36756 9.20578L7.76023 5.78328H9.11486L7.02517 10.8389ZM9.88932 10.8389H8.57341L9.65698 5.78328H10.9729L9.88932 10.8389ZM12.6754 7.18383C12.7141 6.91154 12.9464 6.75585 13.2175 6.75585C13.6434 6.71676 14.1074 6.79494 14.4947 6.98905L14.727 5.90056C14.3398 5.74487 13.9138 5.66669 13.5273 5.66669C12.2501 5.66669 11.3207 6.36696 11.3207 7.33885C11.3207 8.07821 11.979 8.46642 12.4437 8.7003C12.9464 8.9335 13.14 9.08919 13.1013 9.32239C13.1013 9.67219 12.7141 9.82788 12.3275 9.82788C11.8629 9.82788 11.3982 9.71128 10.9729 9.51649L10.7406 10.6057C11.2052 10.7998 11.708 10.8779 12.1726 10.8779C13.6047 10.9164 14.4947 10.2168 14.4947 9.1667C14.4947 7.84434 12.6754 7.76683 12.6754 7.18383ZM19.1 10.8389L18.0552 5.78328H16.9329C16.7005 5.78328 16.4682 5.93897 16.3907 6.17217L14.4559 10.8389H15.8106L16.081 10.1002H17.7454L17.9003 10.8389H19.1ZM17.1265 7.14474L17.513 9.0501H16.4294L17.1265 7.14474Z" fill="#172B85"/>
<rect x="25.12" y="0.12" width="22.76" height="15.76" rx="2.38" fill="#1F72CD" stroke="#D9D9D9" stroke-width="0.24"/>
<path fill-rule="evenodd" clip-rule="evenodd" d="M29.1443 5.62036L27 10.576H29.567L29.8853 9.78586H30.6127L30.9309 10.576H33.7565V9.97294L34.0083 10.576H35.4699L35.7217 9.9602V10.576H41.5981L42.3127 9.80638L42.9817 10.576L46 10.5824L43.8489 8.11201L46 5.62036H43.0285L42.333 6.37575L41.685 5.62036H35.2922L34.7432 6.89945L34.1814 5.62036H31.6197V6.2029L31.3348 5.62036H29.1443ZM37.9196 6.32407H41.2941L42.3262 7.48836L43.3916 6.32407H44.4237L42.8555 8.11131L44.4237 9.87796H43.3448L42.3127 8.70015L41.2419 9.87796H37.9196V6.32407ZM38.7529 7.70948V7.06034V7.05972H40.8585L41.7773 8.09787L40.8178 9.14169H38.7529V8.43301H40.5939V7.70948H38.7529ZM29.641 6.32407H30.8923L32.3146 9.68451V6.32407H33.6853L34.7839 8.73349L35.7964 6.32407H37.1603V9.88006H36.3304L36.3236 7.09361L35.1137 9.88006H34.3713L33.1546 7.09361V9.88006H31.4473L31.1237 9.08285H29.375L29.052 9.87936H28.1372L29.641 6.32407ZM29.6736 8.34589L30.2497 6.92573L30.8251 8.34589H29.6736Z" fill="white"/>
<rect x="50.12" y="0.12" width="22.76" height="15.76" rx="2.38" fill="white" stroke="#D9D9D9" stroke-width="0.24"/>
<path d="M64.9745 2.99249C67.75 2.99263 69.9999 5.20607 69.9999 7.93585C69.9996 10.6654 67.7499 12.8781 64.9745 12.8782C63.73 12.8782 62.5915 12.4325 61.7137 11.6956C60.8361 12.4322 59.6982 12.8782 58.454 12.8782C55.6785 12.878 53.4286 10.6646 53.4286 7.93488C53.4289 5.20534 55.6787 2.99268 58.454 2.99249C59.698 2.99249 60.8361 3.43778 61.7137 4.17413C62.5914 3.43747 63.7302 2.99249 64.9745 2.99249Z" fill="#ED0006"/>
<path d="M64.9741 2.99249C67.7497 2.99249 70.0004 5.20598 70.0004 7.93585C70.0002 10.6655 67.7495 12.8782 64.9741 12.8782C63.7295 12.8782 62.592 12.4316 61.7143 11.6946C62.794 10.7881 63.4798 9.44145 63.4799 7.93585C63.4799 6.42983 62.7944 5.08172 61.7143 4.17511C62.592 3.4384 63.7298 2.99254 64.9741 2.99249Z" fill="#F9A000"/>
<path d="M61.7142 4.17432C62.7945 5.08085 63.4797 6.42896 63.4798 7.93506C63.4798 9.44114 62.7943 10.7892 61.7142 11.6958C60.6341 10.7892 59.9485 9.44105 59.9485 7.93506C59.9487 6.42905 60.634 5.08085 61.7142 4.17432Z" fill="#FF5E00"/>
<rect x="75.12" y="0.12" width="22.76" height="15.76" rx="2.38" fill="white" stroke="#D9D9D9" stroke-width="0.24"/>
<path fill-rule="evenodd" clip-rule="evenodd" d="M81.6 10.1606H80.5629C80.492 10.1606 80.4316 10.2122 80.4205 10.2823L80.0011 12.9416C79.9928 12.9941 80.0334 13.0414 80.0866 13.0414H80.5817C80.6527 13.0414 80.7131 12.9898 80.7241 12.9197L80.8373 12.2024C80.8482 12.1322 80.9087 12.0806 80.9795 12.0806H81.3078C81.991 12.0806 82.3852 11.7501 82.4882 11.095C82.5346 10.8084 82.4902 10.5832 82.3559 10.4254C82.2086 10.2523 81.9471 10.1606 81.6 10.1606ZM81.7197 11.1319C81.663 11.5041 81.3786 11.5041 81.1037 11.5041H80.9472L81.057 10.8091C81.0635 10.7671 81.0999 10.7362 81.1424 10.7362H81.2141C81.4014 10.7362 81.578 10.7362 81.6693 10.8429C81.7237 10.9066 81.7404 11.0012 81.7197 11.1319ZM84.7001 11.12H84.2034C84.1611 11.12 84.1246 11.151 84.118 11.193L84.0961 11.3319L84.0613 11.2816C83.9538 11.1255 83.7141 11.0733 83.4748 11.0733C82.926 11.0733 82.4573 11.489 82.366 12.0721C82.3185 12.3629 82.386 12.641 82.551 12.835C82.7023 13.0133 82.9189 13.0876 83.1765 13.0876C83.6187 13.0876 83.8639 12.8032 83.8639 12.8032L83.8418 12.9413C83.8334 12.9941 83.874 13.0414 83.927 13.0414H84.3743C84.4455 13.0414 84.5055 12.9898 84.5167 12.9196L84.7851 11.2198C84.7936 11.1675 84.7531 11.12 84.7001 11.12ZM84.0078 12.0866C83.9599 12.3703 83.7347 12.5608 83.4475 12.5608C83.3033 12.5608 83.188 12.5145 83.114 12.4269C83.0406 12.3399 83.0127 12.2159 83.0361 12.078C83.0808 11.7966 83.3098 11.6 83.5926 11.6C83.7336 11.6 83.8483 11.6468 83.9238 11.7352C83.9994 11.8246 84.0295 11.9492 84.0078 12.0866ZM86.846 11.1199H87.3451C87.415 11.1199 87.4557 11.1983 87.416 11.2557L85.7562 13.6516C85.7293 13.6904 85.685 13.7135 85.6377 13.7135H85.1392C85.0691 13.7135 85.0281 13.6345 85.0687 13.577L85.5856 12.8475L85.0359 11.2343C85.0169 11.1782 85.0583 11.1199 85.1179 11.1199H85.6083C85.672 11.1199 85.7282 11.1618 85.7466 11.2228L86.0383 12.1971L86.7267 11.1832C86.7536 11.1436 86.7984 11.1199 86.846 11.1199Z" fill="#253B80"/>
<path fill-rule="evenodd" clip-rule="evenodd" d="M92.257 12.9416L92.6826 10.2336C92.6891 10.1915 92.7255 10.1606 92.7678 10.1605H93.247C93.2999 10.1605 93.3406 10.2079 93.3322 10.2604L92.9125 12.9196C92.9015 12.9898 92.8412 13.0414 92.7701 13.0414H92.3422C92.2893 13.0414 92.2486 12.9941 92.257 12.9416ZM88.9974 10.1606H87.9601C87.8893 10.1606 87.829 10.2122 87.8179 10.2822L87.3984 12.9416C87.3901 12.9941 87.4307 13.0414 87.4837 13.0414H88.0159C88.0654 13.0414 88.1077 13.0053 88.1154 12.9562L88.2344 12.2024C88.2454 12.1321 88.3059 12.0806 88.3767 12.0806H88.7048C89.3881 12.0806 89.7823 11.75 89.8854 11.0949C89.9319 10.8083 89.8872 10.5831 89.753 10.4254C89.6057 10.2523 89.3445 10.1606 88.9974 10.1606ZM89.117 11.1319C89.0605 11.504 88.7761 11.504 88.501 11.504H88.3447L88.4546 10.809C88.4612 10.7671 88.4972 10.7361 88.5398 10.7361H88.6116C88.7987 10.7361 88.9756 10.7361 89.0668 10.8428C89.1212 10.9066 89.1378 11.0012 89.117 11.1319ZM92.0972 11.12H91.6009C91.5582 11.12 91.522 11.1509 91.5156 11.193L91.4937 11.3318L91.4588 11.2815C91.3513 11.1254 91.1117 11.0733 90.8724 11.0733C90.3236 11.0733 89.855 11.489 89.7637 12.072C89.7164 12.3629 89.7836 12.641 89.9485 12.8349C90.1002 13.0132 90.3165 13.0876 90.5741 13.0876C91.0163 13.0876 91.2615 12.8032 91.2615 12.8032L91.2394 12.9412C91.231 12.994 91.2716 13.0413 91.3249 13.0413H91.7721C91.8429 13.0413 91.9032 12.9897 91.9143 12.9196L92.1829 11.2198C92.1911 11.1675 92.1504 11.12 92.0972 11.12ZM91.405 12.0866C91.3573 12.3703 91.1318 12.5607 90.8446 12.5607C90.7007 12.5607 90.5852 12.5145 90.5111 12.4269C90.4377 12.3398 90.4102 12.2159 90.4332 12.0779C90.4782 11.7966 90.7069 11.6 90.9897 11.6C91.1308 11.6 91.2454 11.6468 91.321 11.7352C91.3969 11.8245 91.4269 11.9492 91.405 12.0866Z" fill="#179BD7"/>
<path d="M85.438 9.20927L85.5655 8.39944L85.2815 8.39284H83.9254L84.8678 2.41696C84.8707 2.39891 84.8802 2.38209 84.8941 2.37015C84.908 2.35821 84.9258 2.35162 84.9444 2.35162H87.231C87.9902 2.35162 88.5141 2.5096 88.7876 2.82139C88.9158 2.96767 88.9975 3.12052 89.037 3.28873C89.0784 3.46523 89.0792 3.6761 89.0387 3.9333L89.0358 3.95207V4.11686L89.164 4.18952C89.272 4.2468 89.3578 4.31238 89.4236 4.38747C89.5334 4.51253 89.6043 4.67147 89.6343 4.85992C89.6652 5.05373 89.655 5.28435 89.6043 5.54544C89.5458 5.84579 89.4512 6.10737 89.3235 6.32141C89.2059 6.51863 89.0562 6.68217 88.8786 6.80898C88.7089 6.9294 88.5073 7.02084 88.2793 7.07937C88.0584 7.13684 87.8066 7.16589 87.5304 7.16589H87.3524C87.2252 7.16589 87.1016 7.21172 87.0046 7.29389C86.9073 7.37775 86.8429 7.49228 86.8232 7.61761L86.8098 7.69053L86.5845 9.11783L86.5743 9.17025C86.5716 9.18688 86.567 9.19516 86.5602 9.20078C86.5541 9.20583 86.5453 9.20927 86.5367 9.20927H85.438Z" fill="#253B80"/>
<path d="M89.2855 3.97113C89.2787 4.01477 89.2709 4.05938 89.2621 4.10521C88.9605 5.65348 87.9288 6.18835 86.6112 6.18835H85.9403C85.7792 6.18835 85.6434 6.30536 85.6182 6.46431L85.2747 8.64279L85.1775 9.26026C85.1611 9.36462 85.2416 9.45872 85.3469 9.45872H86.5368C86.6778 9.45872 86.7974 9.35634 86.8196 9.21739L86.8313 9.1569L87.0554 7.73514L87.0698 7.65717C87.0917 7.51773 87.2116 7.41535 87.3525 7.41535H87.5305C88.6833 7.41535 89.5858 6.94728 89.8496 5.59278C89.9598 5.02696 89.9027 4.55451 89.6112 4.22223C89.523 4.12203 89.4135 4.0389 89.2855 3.97113Z" fill="#179BD7"/>
<path d="M88.9699 3.84548C88.9239 3.83207 88.8763 3.81988 88.8275 3.80891C88.7785 3.79819 88.7283 3.78868 88.6766 3.78039C88.4957 3.75114 88.2975 3.73724 88.0852 3.73724H86.2929C86.2488 3.73724 86.2069 3.74724 86.1693 3.76528C86.0867 3.80501 86.0253 3.88327 86.0104 3.97908L85.6291 6.39401L85.6181 6.46446C85.6432 6.30551 85.779 6.18849 85.9401 6.18849H86.611C87.9287 6.18849 88.9604 5.65339 89.262 4.10536C89.271 4.05953 89.2785 4.01491 89.2853 3.97128C89.2091 3.93081 89.1264 3.89619 89.0374 3.86669C89.0155 3.85938 88.9928 3.85231 88.9699 3.84548Z" fill="#222D65"/>
<path d="M86.0104 3.97901C86.0253 3.8832 86.0867 3.80494 86.1693 3.76545C86.2072 3.74741 86.2489 3.73741 86.2929 3.73741H88.0853C88.2976 3.73741 88.4958 3.75131 88.6767 3.78056C88.7284 3.78885 88.7786 3.79836 88.8276 3.80908C88.8764 3.82006 88.9239 3.83225 88.97 3.84565C88.9929 3.85248 89.0155 3.85955 89.0377 3.86662C89.1267 3.89612 89.2094 3.93098 89.2856 3.9712C89.3754 3.39904 89.2849 3.00948 88.9756 2.65672C88.6345 2.26837 88.019 2.10211 87.2313 2.10211H84.9446C84.7837 2.10211 84.6465 2.21912 84.6216 2.37832L83.6691 8.41564C83.6503 8.53507 83.7425 8.64286 83.8629 8.64286H85.2747L85.6291 6.39393L86.0104 3.97901Z" fill="#253B80"/>
<rect x="100.12" y="0.12" width="22.76" height="15.76" rx="2.38" fill="white" stroke="#D9D9D9" stroke-width="0.24"/>
<path d="M118.07 9.54578H118.081L119.04 7.10437H119.714L117.642 11.9999H117.002L117.773 10.287L116.413 7.10437H117.087L118.07 9.54578ZM114.826 6.99304C115.285 6.99308 115.647 7.12027 115.912 7.37C116.178 7.61972 116.309 7.9682 116.309 8.40808V10.5057H115.716V10.0341H115.689C115.431 10.4223 115.092 10.6161 114.664 10.6161C114.302 10.6161 113.994 10.5051 113.751 10.2831C113.513 10.077 113.378 9.77197 113.386 9.45105C113.386 9.09821 113.517 8.82035 113.775 8.61023C114.033 8.40017 114.38 8.29675 114.811 8.29675C115.181 8.29675 115.481 8.36899 115.72 8.50378V8.35632C115.72 8.13856 115.628 7.93255 115.466 7.78992C115.3 7.63927 115.088 7.55554 114.868 7.55554C114.522 7.55559 114.248 7.70649 114.048 8.00769L113.501 7.65515C113.794 7.21509 114.237 6.99304 114.826 6.99304ZM111.887 5.53406C112.284 5.52613 112.669 5.68034 112.951 5.9657C113.513 6.50486 113.548 7.41319 113.02 7.99597L112.951 8.06726C112.662 8.34874 112.307 8.49109 111.887 8.49109H110.863V10.5057H110.242V5.53406H111.887ZM114.908 8.81238C114.657 8.81238 114.445 8.87605 114.276 8.9989C114.11 9.1218 114.025 9.27644 114.025 9.46277C114.025 9.62927 114.103 9.78364 114.23 9.87878C114.368 9.9897 114.538 10.0497 114.711 10.0458C114.973 10.0457 115.224 9.93813 115.409 9.74792C115.612 9.54983 115.716 9.31609 115.716 9.04675C115.524 8.88821 115.254 8.80844 114.908 8.81238ZM110.863 7.88074H111.903C112.134 7.88867 112.357 7.79336 112.515 7.62292C112.838 7.27809 112.831 6.72355 112.496 6.3905C112.338 6.23192 112.126 6.14441 111.903 6.14441H110.863V7.88074Z" fill="#3C4043"/>
<path d="M108.722 8.05532C108.722 7.86106 108.706 7.6668 108.675 7.4765H106.06V8.57467H107.558C107.497 8.92751 107.296 9.24467 107.004 9.4429V10.1565H107.897C108.421 9.66094 108.722 8.92751 108.722 8.05532Z" fill="#4285F4"/>
<path d="M106.06 10.8463C106.807 10.8463 107.439 10.5926 107.897 10.1565L107.004 9.44291C106.753 9.61735 106.434 9.71646 106.06 9.71646C105.336 9.71646 104.724 9.21297 104.504 8.539H103.583V9.2764C104.053 10.2398 105.012 10.8463 106.06 10.8463Z" fill="#34A853"/>
<path d="M104.504 8.539C104.388 8.18616 104.388 7.8016 104.504 7.4448V6.71136H103.583C103.187 7.51616 103.187 8.46764 103.583 9.27244L104.504 8.539Z" fill="#FBBC04"/>
<path d="M106.06 6.26733C106.457 6.2594 106.838 6.41401 107.123 6.69549L107.917 5.8788C107.412 5.39513 106.75 5.12951 106.06 5.13744C105.012 5.13744 104.053 5.74797 103.583 6.71135L104.504 7.44875C104.724 6.77082 105.336 6.26733 106.06 6.26733Z" fill="#EA4335"/>
<rect x="125.12" y="0.12" width="22.76" height="15.76" rx="2.38" fill="white" stroke="#D9D9D9" stroke-width="0.24"/>
<path fill-rule="evenodd" clip-rule="evenodd" d="M130.485 5.95533C130.794 5.98176 131.102 5.79672 131.295 5.56213C131.485 5.32092 131.611 4.99711 131.579 4.66669C131.305 4.6799 130.967 4.85172 130.774 5.09293C130.597 5.30109 130.446 5.63812 130.485 5.95533ZM134.159 10.2111V5.05988H136.041C137.013 5.05988 137.692 5.74716 137.692 6.75163C137.692 7.75611 137 8.44999 136.016 8.44999H134.938V10.2111H134.159ZM131.575 6.01812C131.303 6.00203 131.055 6.10216 130.854 6.18303C130.725 6.23508 130.616 6.27915 130.533 6.27915C130.44 6.27915 130.326 6.23272 130.198 6.18059C130.031 6.11229 129.839 6.0342 129.638 6.03794C129.178 6.04455 128.75 6.31219 128.515 6.73843C128.033 7.59092 128.39 8.85312 128.857 9.547C129.085 9.89064 129.358 10.2673 129.719 10.2541C129.877 10.248 129.991 10.1983 130.109 10.1468C130.245 10.0876 130.386 10.0261 130.607 10.0261C130.82 10.0261 130.955 10.086 131.084 10.1435C131.207 10.1982 131.326 10.2507 131.501 10.2475C131.875 10.2409 132.109 9.90386 132.338 9.56022C132.584 9.1914 132.693 8.83145 132.709 8.77683L132.711 8.77052C132.711 8.77011 132.708 8.76869 132.702 8.76619L132.702 8.76616L132.702 8.76615C132.62 8.72741 131.99 8.43127 131.984 7.63718C131.978 6.97064 132.484 6.63294 132.563 6.57978L132.563 6.57978L132.563 6.57977C132.568 6.57654 132.571 6.57436 132.573 6.57322C132.251 6.0842 131.749 6.03133 131.575 6.01812ZM139.114 10.2508C139.603 10.2508 140.057 9.99634 140.263 9.59323H140.279V10.2111H141V7.64706C141 6.90361 140.42 6.4245 139.529 6.4245C138.702 6.4245 138.091 6.91022 138.068 7.57767H138.77C138.828 7.26047 139.114 7.0523 139.507 7.0523C139.983 7.0523 140.25 7.28029 140.25 7.69992V7.98409L139.278 8.04356C138.374 8.09973 137.885 8.47971 137.885 9.14055C137.885 9.808 138.39 10.2508 139.114 10.2508ZM139.323 9.6395C138.908 9.6395 138.644 9.43464 138.644 9.12074C138.644 8.79693 138.899 8.60859 139.384 8.57885L140.25 8.52268V8.81345C140.25 9.29586 139.851 9.6395 139.323 9.6395ZM143.39 10.4127C143.078 11.3147 142.721 11.6121 141.962 11.6121C141.904 11.6121 141.711 11.6055 141.666 11.5923V10.9744C141.714 10.981 141.833 10.9876 141.894 10.9876C142.238 10.9876 142.431 10.8389 142.55 10.4523L142.621 10.2243L141.302 6.47408H142.116L143.033 9.51725H143.049L143.966 6.47408H144.758L143.39 10.4127ZM134.938 5.73395H135.835C136.511 5.73395 136.897 6.10402 136.897 6.75495C136.897 7.40588 136.511 7.77925 135.832 7.77925H134.938V5.73395Z" fill="black"/>
<rect x="150.12" y="0.12" width="22.76" height="15.76" rx="2.38" fill="#5A31F4" stroke="#D9D9D9" stroke-width="0.24"/>
<path d="M162.949 7.37414C162.949 8.40087 162.239 9.13381 161.248 9.13381H160.313C160.303 9.13381 160.293 9.13588 160.283 9.1399C160.274 9.14391 160.265 9.1498 160.258 9.15721C160.251 9.16463 160.245 9.17343 160.241 9.18311C160.237 9.19279 160.235 9.20316 160.235 9.21362V10.5631C160.235 10.5842 160.227 10.6044 160.212 10.6194C160.198 10.6343 160.178 10.6428 160.157 10.6429H159.503C159.488 10.6428 159.472 10.6381 159.459 10.6293C159.447 10.6205 159.437 10.6081 159.431 10.5935C159.427 10.584 159.425 10.5738 159.424 10.5635V5.69389C159.424 5.68343 159.426 5.67306 159.43 5.66338C159.434 5.6537 159.44 5.6449 159.447 5.63748C159.455 5.63006 159.463 5.62418 159.473 5.62016C159.482 5.61615 159.492 5.61408 159.503 5.61408H161.252C162.239 5.61292 162.949 6.34586 162.949 7.37414ZM162.133 7.37414C162.133 6.78385 161.737 6.35242 161.199 6.35242H160.313C160.303 6.35242 160.293 6.35449 160.283 6.3585C160.274 6.36252 160.265 6.3684 160.258 6.37582C160.251 6.38323 160.245 6.39203 160.241 6.40172C160.237 6.4114 160.235 6.42177 160.235 6.43223V8.31142C160.235 8.33249 160.243 8.35269 160.258 8.36759C160.273 8.38248 160.293 8.39085 160.313 8.39085H161.199C161.737 8.3947 162.133 7.96288 162.133 7.37414ZM163.142 9.70868C163.136 9.55121 163.168 9.39452 163.236 9.25284C163.304 9.11117 163.406 8.98901 163.532 8.89747C163.787 8.70276 164.186 8.60213 164.771 8.58131L165.395 8.55895V8.37234C165.395 7.99835 165.148 7.84028 164.751 7.84028C164.354 7.84028 164.102 7.98293 164.045 8.21619C164.04 8.2326 164.03 8.24695 164.016 8.257C164.003 8.26705 163.986 8.27222 163.969 8.27171H163.354C163.342 8.27203 163.331 8.2698 163.321 8.2652C163.31 8.26059 163.301 8.25372 163.294 8.24507C163.286 8.23641 163.281 8.2262 163.278 8.21514C163.274 8.20409 163.274 8.19247 163.275 8.18111C163.367 7.62822 163.82 7.20797 164.779 7.20797C165.799 7.20797 166.167 7.68991 166.167 8.60984V10.5631C166.167 10.5844 166.159 10.6047 166.144 10.6197C166.129 10.6346 166.108 10.643 166.087 10.6429H165.467C165.446 10.6428 165.426 10.6345 165.411 10.6197C165.404 10.6123 165.398 10.6036 165.394 10.5939C165.391 10.5842 165.389 10.5739 165.389 10.5635V10.4173C165.389 10.4053 165.385 10.3934 165.379 10.3833C165.372 10.3732 165.363 10.3654 165.352 10.3608C165.341 10.3563 165.329 10.3552 165.317 10.3578C165.305 10.3604 165.295 10.3665 165.287 10.3753C165.1 10.5808 164.8 10.7292 164.318 10.7292C163.61 10.7292 163.142 10.3553 163.142 9.70868ZM165.395 9.28534V9.13381L164.587 9.177C164.162 9.19897 163.915 9.37826 163.915 9.68015C163.915 9.95312 164.142 10.1043 164.538 10.1043C165.077 10.1043 165.395 9.80931 165.395 9.28534ZM166.791 12.1188V11.5528C166.791 11.5409 166.793 11.5292 166.798 11.5185C166.803 11.5078 166.811 11.4984 166.82 11.4909C166.829 11.4834 166.84 11.478 166.851 11.4751C166.862 11.4722 166.874 11.4719 166.886 11.4741C166.981 11.4923 167.077 11.5015 167.174 11.5019C167.341 11.5101 167.505 11.4614 167.642 11.3635C167.778 11.2657 167.877 11.1243 167.925 10.9621L167.965 10.8318C167.971 10.8143 167.971 10.7953 167.965 10.7778L166.672 7.40807C166.667 7.39585 166.666 7.38267 166.667 7.36965C166.669 7.35663 166.673 7.34416 166.68 7.33331C166.688 7.32247 166.697 7.31357 166.709 7.30738C166.72 7.3012 166.733 7.29791 166.746 7.2978H167.373C167.389 7.29797 167.404 7.30302 167.418 7.3123C167.431 7.32159 167.441 7.33467 167.446 7.34985L168.325 9.72641C168.33 9.7422 168.34 9.75587 168.354 9.76554C168.367 9.77521 168.384 9.7804 168.4 9.7804C168.417 9.7804 168.433 9.77521 168.446 9.76554C168.46 9.75587 168.47 9.7422 168.475 9.72641L169.238 7.3564C169.243 7.3402 169.254 7.32611 169.267 7.31614C169.281 7.30617 169.297 7.30083 169.314 7.30088H169.963C169.976 7.30096 169.989 7.30423 170 7.31041C170.012 7.31659 170.021 7.32549 170.029 7.33636C170.036 7.34723 170.041 7.35975 170.042 7.37284C170.044 7.38593 170.042 7.39921 170.038 7.41154L168.654 11.1537C168.336 12.0235 167.79 12.246 167.188 12.246C167.074 12.2491 166.96 12.2352 166.85 12.2048C166.832 12.1998 166.816 12.1885 166.805 12.1728C166.794 12.1571 166.789 12.1379 166.791 12.1188ZM155.224 5.3334C154.4 5.32744 153.605 5.64203 153.003 6.21246C152.977 6.23639 152.961 6.26919 152.958 6.30446C152.955 6.33974 152.964 6.37498 152.985 6.40331L153.358 6.91996C153.37 6.93716 153.386 6.95146 153.404 6.96187C153.422 6.97227 153.442 6.97852 153.463 6.98017C153.484 6.98183 153.505 6.97885 153.524 6.97144C153.544 6.96403 153.561 6.95238 153.576 6.93731C153.792 6.71767 154.05 6.54402 154.333 6.42652C154.617 6.30901 154.921 6.25001 155.227 6.25294C156.505 6.25294 157.173 7.22917 157.173 8.19306C157.173 9.241 156.471 9.97818 155.463 9.99283C154.684 9.99283 154.097 9.46886 154.097 8.77679C154.098 8.60195 154.137 8.42947 154.211 8.27179C154.286 8.11411 154.394 7.97516 154.528 7.86495C154.556 7.84098 154.574 7.80671 154.577 7.7695C154.581 7.73229 154.57 7.69513 154.547 7.666L154.155 7.16401C154.143 7.14883 154.129 7.13621 154.112 7.1269C154.095 7.11759 154.077 7.11177 154.058 7.1098C154.039 7.10782 154.019 7.10972 154.001 7.11539C153.983 7.12106 153.966 7.13038 153.951 7.14281C153.711 7.33949 153.517 7.58833 153.383 7.87107C153.25 8.15382 153.18 8.46329 153.18 8.77679C153.18 9.96815 154.178 10.9027 155.456 10.9105H155.473C156.991 10.8904 158.089 9.74993 158.089 8.19113C158.089 6.80699 157.084 5.3334 155.224 5.3334H155.224Z" fill="white"/>
<rect x="175.12" y="0.12" width="22.76" height="15.76" rx="2.38" fill="#FEB4C7" stroke="#D9D9D9" stroke-width="0.24"/>
<path d="M184.227 7.23047C184.538 7.23047 184.826 7.3294 185.064 7.49902V7.31152H185.908V10.252H185.064V10.0645C184.826 10.234 184.538 10.333 184.227 10.333C183.406 10.333 182.74 9.63821 182.74 8.78125C182.74 7.92451 183.406 7.23049 184.227 7.23047ZM193.133 7.23047C193.444 7.23057 193.731 7.32964 193.969 7.49902V7.31152H194.814V10.252H193.969V10.0645C193.731 10.2338 193.444 10.3329 193.133 10.333C192.312 10.333 191.645 9.63822 191.645 8.78125C191.645 7.9245 192.312 7.23047 193.133 7.23047ZM195.71 9.20898C196.002 9.20898 196.24 9.45655 196.24 9.76172C196.24 10.0666 196.002 10.3135 195.71 10.3135C195.417 10.3132 195.181 10.0665 195.18 9.76172C195.18 9.45669 195.417 9.20922 195.71 9.20898ZM178.564 6V10.2529H177.629V6H178.564ZM180.901 6C180.901 6.92076 180.557 7.7774 179.944 8.41406L181.237 10.2529H180.082L178.676 8.25391L179.039 7.9707C179.64 7.50072 179.985 6.78263 179.985 6H180.901ZM182.393 10.252H181.509V6.00098H182.393V10.252ZM187.215 7.69434C187.384 7.46469 187.699 7.31152 188.042 7.31152V8.16699C188.038 8.16695 188.034 8.16699 188.031 8.16699C187.697 8.16723 187.217 8.41594 187.216 8.87891V10.252H186.35V7.31152H187.215V7.69434ZM190.145 7.23242C190.825 7.23242 191.347 7.69761 191.347 8.38184V10.252H190.504V8.7002C190.503 8.27161 190.29 8.04106 189.92 8.04102C189.573 8.04102 189.286 8.25986 189.286 8.70703V10.252H188.435V7.31152H189.275V7.64258C189.488 7.34133 189.808 7.23242 190.145 7.23242ZM184.297 8.02539C183.874 8.02539 183.532 8.36437 183.532 8.78223C183.532 9.19989 183.874 9.53809 184.297 9.53809C184.719 9.53807 185.061 9.19988 185.061 8.78223C185.061 8.36438 184.719 8.0254 184.297 8.02539ZM193.202 8.02539C192.78 8.02565 192.437 8.36453 192.437 8.78223C192.437 9.19973 192.78 9.53783 193.202 9.53809C193.624 9.53809 193.967 9.19989 193.967 8.78223C193.967 8.36437 193.624 8.02539 193.202 8.02539Z" fill="#17120F"/>
</svg>
