<svg width="97" height="16" viewBox="0 0 97 16" xmlns="http://www.w3.org/2000/svg">
<path d="M8.5 0L10.2961 5.52786H16.1085L11.4062 8.94427L13.2023 14.4721L8.5 11.0557L3.79772 14.4721L5.59383 8.94427L0.891548 5.52786H6.70389L8.5 0Z" />
<path d="M28.5 0L30.2961 5.52786H36.1085L31.4062 8.94427L33.2023 14.4721L28.5 11.0557L23.7977 14.4721L25.5938 8.94427L20.8915 5.52786H26.7039L28.5 0Z" />
<path d="M48.5 0L50.2961 5.52786H56.1085L51.4062 8.94427L53.2023 14.4721L48.5 11.0557L43.7977 14.4721L45.5938 8.94427L40.8915 5.52786H46.7039L48.5 0Z" />
<path d="M68.5 0L70.2961 5.52786H76.1085L71.4062 8.94427L73.2023 14.4721L68.5 11.0557L63.7977 14.4721L65.5938 8.94427L60.8915 5.52786H66.7039L68.5 0Z" />
<path d="M88.5 0L90.2961 5.52786H96.1085L91.4062 8.94427L93.2023 14.4721L88.5 11.0557L83.7977 14.4721L85.5938 8.94427L80.8915 5.52786H86.7039L88.5 0Z" />
</svg>
